<?xml version="1.0" encoding="utf-8" ?>
<!DOCTYPE svg PUBLIC "-//W3C//DTD SVG 1.1//EN" "http://www.w3.org/Graphics/SVG/1.1/DTD/svg11.dtd">
<svg height="684" version="1.1" width="1095" xmlns="http://www.w3.org/2000/svg">
<rect fill="#ffffff" height="71" stroke="#ffffff" stroke-width="1" width="103" x="253" y="14"/>
<rect fill="none" height="71" stroke="#000000" stroke-width="1" width="103" x="253" y="14"/>
<text font-family="Lucida Grande" font-size="13" x="266" y="28">
BaseProduct</text>
<rect fill="#000000" height="1" stroke="#000000" stroke-width="1" width="103" x="253" y="38"/>
<rect fill="#000000" height="1" stroke="#000000" stroke-width="1" width="103" x="253" y="59"/>
<text font-family="Lucida Grande" font-size="13" x="257" y="74">
newOperation()</text>
<rect fill="#ffffff" height="67" stroke="#ffffff" stroke-width="1" width="72" x="133" y="198"/>
<rect fill="none" height="67" stroke="#000000" stroke-width="1" width="72" x="133" y="198"/>
<text font-family="Lucida Grande" font-size="13" x="138" y="212">
Excursion</text>
<rect fill="#000000" height="1" stroke="#000000" stroke-width="1" width="72" x="133" y="222"/>
<rect fill="#000000" height="1" stroke="#000000" stroke-width="1" width="72" x="133" y="243"/>
<rect fill="#ffffff" height="68" stroke="#ffffff" stroke-width="1" width="66" x="269" y="198"/>
<rect fill="none" height="68" stroke="#000000" stroke-width="1" width="66" x="269" y="198"/>
<text font-family="Lucida Grande" font-size="13" x="284" y="212">
Flight</text>
<rect fill="#000000" height="1" stroke="#000000" stroke-width="1" width="66" x="269" y="222"/>
<rect fill="#000000" height="1" stroke="#000000" stroke-width="1" width="66" x="269" y="243"/>
<rect fill="#ffffff" height="68" stroke="#ffffff" stroke-width="1" width="72" x="405" y="198"/>
<rect fill="none" height="68" stroke="#000000" stroke-width="1" width="72" x="405" y="198"/>
<text font-family="Lucida Grande" font-size="13" x="424" y="212">
Hotel</text>
<rect fill="#000000" height="1" stroke="#000000" stroke-width="1" width="72" x="405" y="222"/>
<rect fill="#000000" height="1" stroke="#000000" stroke-width="1" width="72" x="405" y="243"/>
<rect fill="#ffffff" height="68" stroke="#ffffff" stroke-width="1" width="106" x="253" y="558"/>
<rect fill="none" height="68" stroke="#000000" stroke-width="1" width="106" x="253" y="558"/>
<text font-family="Lucida Grande" font-size="13" x="258" y="572">
Personalization</text>
<rect fill="#000000" height="1" stroke="#000000" stroke-width="1" width="106" x="253" y="582"/>
<rect fill="#000000" height="1" stroke="#000000" stroke-width="1" width="106" x="253" y="603"/>
<rect fill="#ffffff" height="68" stroke="#ffffff" stroke-width="1" width="135" x="125" y="374"/>
<rect fill="none" height="68" stroke="#000000" stroke-width="1" width="135" x="125" y="374"/>
<text font-family="Lucida Grande" font-size="13" x="130" y="388">
DatePersonalization</text>
<rect fill="#000000" height="1" stroke="#000000" stroke-width="1" width="135" x="125" y="398"/>
<rect fill="#000000" height="1" stroke="#000000" stroke-width="1" width="135" x="125" y="419"/>
<rect fill="#ffffff" height="68" stroke="#ffffff" stroke-width="1" width="140" x="341" y="374"/>
<rect fill="none" height="68" stroke="#000000" stroke-width="1" width="140" x="341" y="374"/>
<text font-family="Lucida Grande" font-size="13" x="346" y="388">
ClassPersonalization</text>
<rect fill="#000000" height="1" stroke="#000000" stroke-width="1" width="140" x="341" y="398"/>
<rect fill="#000000" height="1" stroke="#000000" stroke-width="1" width="140" x="341" y="419"/>
<rect fill="#ffffff" height="71" stroke="#ffffff" stroke-width="1" width="113" x="509" y="22"/>
<rect fill="none" height="71" stroke="#000000" stroke-width="1" width="113" x="509" y="22"/>
<text font-family="Lucida Grande" font-size="13" x="540" y="36">
Package</text>
<rect fill="#000000" height="1" stroke="#000000" stroke-width="1" width="113" x="509" y="46"/>
<text font-family="Lucida Grande" font-size="13" x="513" y="61">
newAttr : Integer</text>
<rect fill="#000000" height="1" stroke="#000000" stroke-width="1" width="113" x="509" y="71"/>
<rect fill="#ffffff" height="68" stroke="#ffffff" stroke-width="1" width="84" x="821" y="30"/>
<rect fill="none" height="68" stroke="#000000" stroke-width="1" width="84" x="821" y="30"/>
<text font-family="Lucida Grande" font-size="13" x="826" y="44">
PackageList</text>
<rect fill="#000000" height="1" stroke="#000000" stroke-width="1" width="84" x="821" y="54"/>
<rect fill="#000000" height="1" stroke="#000000" stroke-width="1" width="84" x="821" y="75"/>
<rect fill="#ffffff" height="68" stroke="#ffffff" stroke-width="1" width="66" x="661" y="198"/>
<rect fill="none" height="68" stroke="#000000" stroke-width="1" width="66" x="661" y="198"/>
<text font-family="Lucida Grande" font-size="13" x="671" y="212">
GiftList</text>
<rect fill="#000000" height="1" stroke="#000000" stroke-width="1" width="66" x="661" y="222"/>
<rect fill="#000000" height="1" stroke="#000000" stroke-width="1" width="66" x="661" y="243"/>
<rect fill="#ffffff" height="68" stroke="#ffffff" stroke-width="1" width="75" x="925" y="198"/>
<rect fill="none" height="68" stroke="#000000" stroke-width="1" width="75" x="925" y="198"/>
<text font-family="Lucida Grande" font-size="13" x="930" y="212">
BuyingList</text>
<rect fill="#000000" height="1" stroke="#000000" stroke-width="1" width="75" x="925" y="222"/>
<rect fill="#000000" height="1" stroke="#000000" stroke-width="1" width="75" x="925" y="243"/>
<rect fill="#ffffff" height="68" stroke="#ffffff" stroke-width="1" width="66" x="821" y="534"/>
<rect fill="none" height="68" stroke="#000000" stroke-width="1" width="66" x="821" y="534"/>
<text font-family="Lucida Grande" font-size="13" x="840" y="548">
User</text>
<rect fill="#000000" height="1" stroke="#000000" stroke-width="1" width="66" x="821" y="558"/>
<rect fill="#000000" height="1" stroke="#000000" stroke-width="1" width="66" x="821" y="579"/>
<rect fill="#ffffff" height="68" stroke="#ffffff" stroke-width="1" width="66" x="653" y="382"/>
<rect fill="none" height="68" stroke="#000000" stroke-width="1" width="66" x="653" y="382"/>
<text font-family="Lucida Grande" font-size="13" x="672" y="396">
TDC</text>
<rect fill="#000000" height="1" stroke="#000000" stroke-width="1" width="66" x="653" y="406"/>
<rect fill="#000000" height="1" stroke="#000000" stroke-width="1" width="66" x="653" y="427"/>
<rect fill="#ffffff" height="68" stroke="#ffffff" stroke-width="1" width="66" x="821" y="390"/>
<rect fill="none" height="68" stroke="#000000" stroke-width="1" width="66" x="821" y="390"/>
<text font-family="Lucida Grande" font-size="13" x="841" y="404">
TDE</text>
<rect fill="#000000" height="1" stroke="#000000" stroke-width="1" width="66" x="821" y="414"/>
<rect fill="#000000" height="1" stroke="#000000" stroke-width="1" width="66" x="821" y="435"/>
<rect fill="#ffffff" height="68" stroke="#ffffff" stroke-width="1" width="66" x="997" y="382"/>
<rect fill="none" height="68" stroke="#000000" stroke-width="1" width="66" x="997" y="382"/>
<text font-family="Lucida Grande" font-size="13" x="1017" y="396">
TDF</text>
<rect fill="#000000" height="1" stroke="#000000" stroke-width="1" width="66" x="997" y="406"/>
<rect fill="#000000" height="1" stroke="#000000" stroke-width="1" width="66" x="997" y="427"/>
<polyline fill="none" points="421,441 421,510 325,510 325,558" stroke="#000000" stroke-width="1"/>
<polygon fill="#ffffff" points="325,558 318,546 332,546" stroke="#ffffff" stroke-width="1"/>
<polygon fill="none" points="325,558 318,546 332,546" stroke="#000000" stroke-width="1"/>
<polyline fill="none" points="181,441 181,510 293,510 293,558" stroke="#000000" stroke-width="1"/>
<polygon fill="#ffffff" points="293,558 286,546 300,546" stroke="#ffffff" stroke-width="1"/>
<polygon fill="none" points="293,558 286,546 300,546" stroke="#000000" stroke-width="1"/>
<polyline fill="none" points="165,198 165,134 269,134 269,84" stroke="#000000" stroke-width="1"/>
<polygon fill="#ffffff" points="269,84 276,96 262,96" stroke="#ffffff" stroke-width="1"/>
<polygon fill="none" points="269,84 276,96 262,96" stroke="#000000" stroke-width="1"/>
<polyline fill="none" points="293,198 293,84" stroke="#000000" stroke-width="1"/>
<polygon fill="#ffffff" points="293,84 300,96 286,96" stroke="#ffffff" stroke-width="1"/>
<polygon fill="none" points="293,84 300,96 286,96" stroke="#000000" stroke-width="1"/>
<polyline fill="none" points="453,198 453,134 317,134 317,84" stroke="#000000" stroke-width="1"/>
<polygon fill="#ffffff" points="317,84 324,96 310,96" stroke="#ffffff" stroke-width="1"/>
<polygon fill="none" points="317,84 324,96 310,96" stroke="#000000" stroke-width="1"/>
<polyline fill="none" points="701,198 701,166 845,166 845,97" stroke="#000000" stroke-width="1"/>
<polygon fill="#ffffff" points="845,97 852,109 838,109" stroke="#ffffff" stroke-width="1"/>
<polygon fill="none" points="845,97 852,109 838,109" stroke="#000000" stroke-width="1"/>
<polyline fill="none" points="965,198 965,166 877,166 877,97" stroke="#000000" stroke-width="1"/>
<polygon fill="#ffffff" points="877,97 884,109 870,109" stroke="#ffffff" stroke-width="1"/>
<polygon fill="none" points="877,97 884,109 870,109" stroke="#000000" stroke-width="1"/>
<polyline fill="none" points="709,449 709,510 837,510 837,534" stroke="#000000" stroke-width="1"/>
<polygon fill="#ffffff" points="837,534 830,522 844,522" stroke="#ffffff" stroke-width="1"/>
<polygon fill="none" points="837,534 830,522 844,522" stroke="#000000" stroke-width="1"/>
<polyline fill="none" points="854,457 854,534" stroke="#000000" stroke-width="1"/>
<polygon fill="#ffffff" points="854,534 847,522 861,522" stroke="#ffffff" stroke-width="1"/>
<polygon fill="none" points="854,534 847,522 861,522" stroke="#000000" stroke-width="1"/>
<polyline fill="none" points="1029,449 1029,510 869,510 869,534" stroke="#000000" stroke-width="1"/>
<polygon fill="#ffffff" points="869,534 862,522 876,522" stroke="#ffffff" stroke-width="1"/>
<polygon fill="none" points="869,534 862,522 876,522" stroke="#000000" stroke-width="1"/>
<polyline fill="none" points="355,52 509,52" stroke="#000000" stroke-width="1"/>
<text font-family="Lucida Grande" font-size="13" x="359" y="47">
1..*</text>
<text font-family="Lucida Grande" font-size="13" x="483" y="47">
0..*</text>
<polyline fill="none" points="821,52 621,52" stroke="#000000" stroke-width="1"/>
<polygon fill="#ffffff" points="821,52 811,57 801,52 811,47" stroke="#ffffff" stroke-width="1"/>
<polygon fill="none" points="821,52 811,57 801,52 811,47" stroke="#000000" stroke-width="1"/>
<text font-family="Lucida Grande" font-size="13" x="795" y="47">
0..*</text>
<text font-family="Lucida Grande" font-size="13" x="625" y="47">
0..*</text>
<polyline fill="none" points="678,382 678,265" stroke="#000000" stroke-width="1"/>
<text font-family="Lucida Grande" font-size="13" x="657" y="365">
1</text>
<text font-family="Lucida Grande" font-size="13" x="656" y="282">
1</text>
<polyline fill="none" points="965,265 965,334 701,334 701,382" stroke="#000000" stroke-width="1"/>
<text font-family="Lucida Grande" font-size="13" x="978" y="292">
1</text>
<text font-family="Lucida Grande" font-size="13" x="714" y="373">
1</text>
<rect fill="#ffffff" height="68" stroke="#ffffff" stroke-width="1" width="70" x="549" y="198"/>
<rect fill="none" height="68" stroke="#000000" stroke-width="1" width="70" x="549" y="198"/>
<text font-family="Lucida Grande" font-size="13" x="554" y="212">
Invitation</text>
<rect fill="#000000" height="1" stroke="#000000" stroke-width="1" width="70" x="549" y="222"/>
<rect fill="#000000" height="1" stroke="#000000" stroke-width="1" width="70" x="549" y="243"/>
<polyline fill="none" points="594,198 594,92" stroke="#000000" stroke-width="1"/>
<text font-family="Lucida Grande" font-size="13" x="566" y="181">
0..*</text>
<text font-family="Lucida Grande" font-size="13" x="573" y="119">
1</text>
<polyline fill="none" points="589,265 589,414 653,414" stroke="#000000" stroke-width="1"/>
<text font-family="Lucida Grande" font-size="13" x="598" y="287">
0..*</text>
<text font-family="Lucida Grande" font-size="13" x="634" y="409">
1</text>
<polyline fill="none" points="718,414 773,414 773,366 933,366 933,414 997,414" stroke="#000000" stroke-width="1"/>
<text font-family="Lucida Grande" font-size="13" x="729" y="409">
1</text>
<text font-family="Lucida Grande" font-size="13" x="978" y="409">
1</text>
<polyline fill="none" points="125,406 69,406 69,62 253,62" stroke="#000000" stroke-width="1"/>
<text font-family="Lucida Grande" font-size="13" x="73" y="122">
possible</text>
<text font-family="Lucida Grande" font-size="13" x="99" y="401">
1..*</text>
<polyline fill="none" points="125,430 45,430 45,46 253,46" stroke="#000000" stroke-width="1"/>
<text font-family="Lucida Grande" font-size="13" x="18" y="121">
real</text>
<text font-family="Lucida Grande" font-size="13" x="102" y="445">
1</text>
<text font-family="Lucida Grande" font-size="13" x="226" y="41">
0..1</text>
<text font-family="Lucida Grande" font-size="13" x="232" y="78">
1</text>
<polyline fill="none" points="334,238 365,238 365,374" stroke="#000000" stroke-width="1"/>
<text font-family="Lucida Grande" font-size="13" x="368" y="295">
possible</text>
<text font-family="Lucida Grande" font-size="13" x="349" y="233">
1..*</text>
<text font-family="Lucida Grande" font-size="13" x="372" y="369">
1..*</text>
<polyline fill="none" points="301,265 301,406 341,406" stroke="#000000" stroke-width="1"/>
<text font-family="Lucida Grande" font-size="13" x="307" y="322">
real</text>
<text font-family="Lucida Grande" font-size="13" x="307" y="292">
1..*</text>
<text font-family="Lucida Grande" font-size="13" x="314" y="401">
0..1</text>
<polyline fill="none" points="445,265 445,374" stroke="#000000" stroke-width="1"/>
<text font-family="Lucida Grande" font-size="13" x="451" y="324">
real</text>
<text font-family="Lucida Grande" font-size="13" x="451" y="292">
1..*</text>
<text font-family="Lucida Grande" font-size="13" x="450" y="357">
0..1</text>
<polyline fill="none" points="476,230 509,230 509,406 480,406" stroke="#000000" stroke-width="1"/>
<text font-family="Lucida Grande" font-size="13" x="512" y="321">
possible</text>
<text font-family="Lucida Grande" font-size="13" x="485" y="225">
1..*</text>
<text font-family="Lucida Grande" font-size="13" x="515" y="412">
1..*</text>
<polyline fill="none" points="573,265 573,670 1045,670 1045,449" stroke="#000000" stroke-width="1"/>
<text font-family="Lucida Grande" font-size="13" x="544" y="287">
1..*</text>
<text font-family="Lucida Grande" font-size="13" x="1058" y="468">
1</text>
</svg>
