<?xml version="1.0" encoding="utf-8" ?>
<!DOCTYPE svg PUBLIC "-//W3C//DTD SVG 1.1//EN" "http://www.w3.org/Graphics/SVG/1.1/DTD/svg11.dtd">
<svg height="462" version="1.1" width="733" xmlns="http://www.w3.org/2000/svg">
<rect fill="none" height="56" stroke="#000000" stroke-width="1" width="520" x="54" y="136"/>
<line fill="#000000" stroke="#000000" stroke-width="1" x1="89" x2="89" y1="63" y2="68"/>
<line fill="#000000" stroke="#000000" stroke-width="1" x1="89" x2="89" y1="73" y2="78"/>
<line fill="#000000" stroke="#000000" stroke-width="1" x1="89" x2="89" y1="83" y2="88"/>
<line fill="#000000" stroke="#000000" stroke-width="1" x1="89" x2="89" y1="93" y2="98"/>
<line fill="#000000" stroke="#000000" stroke-width="1" x1="89" x2="89" y1="103" y2="108"/>
<line fill="#000000" stroke="#000000" stroke-width="1" x1="89" x2="89" y1="113" y2="118"/>
<line fill="#000000" stroke="#000000" stroke-width="1" x1="89" x2="89" y1="123" y2="128"/>
<line fill="#000000" stroke="#000000" stroke-width="1" x1="89" x2="89" y1="133" y2="138"/>
<line fill="#000000" stroke="#000000" stroke-width="1" x1="89" x2="89" y1="143" y2="148"/>
<line fill="#000000" stroke="#000000" stroke-width="1" x1="89" x2="89" y1="153" y2="158"/>
<line fill="#000000" stroke="#000000" stroke-width="1" x1="89" x2="89" y1="163" y2="168"/>
<line fill="#000000" stroke="#000000" stroke-width="1" x1="89" x2="89" y1="173" y2="178"/>
<line fill="#000000" stroke="#000000" stroke-width="1" x1="89" x2="89" y1="183" y2="188"/>
<line fill="#000000" stroke="#000000" stroke-width="1" x1="89" x2="89" y1="193" y2="198"/>
<line fill="#000000" stroke="#000000" stroke-width="1" x1="89" x2="89" y1="203" y2="208"/>
<line fill="#000000" stroke="#000000" stroke-width="1" x1="89" x2="89" y1="213" y2="218"/>
<line fill="#000000" stroke="#000000" stroke-width="1" x1="89" x2="89" y1="223" y2="228"/>
<line fill="#000000" stroke="#000000" stroke-width="1" x1="89" x2="89" y1="233" y2="238"/>
<line fill="#000000" stroke="#000000" stroke-width="1" x1="89" x2="89" y1="243" y2="248"/>
<line fill="#000000" stroke="#000000" stroke-width="1" x1="89" x2="89" y1="253" y2="258"/>
<line fill="#000000" stroke="#000000" stroke-width="1" x1="89" x2="89" y1="263" y2="268"/>
<line fill="#000000" stroke="#000000" stroke-width="1" x1="89" x2="89" y1="273" y2="278"/>
<line fill="#000000" stroke="#000000" stroke-width="1" x1="89" x2="89" y1="283" y2="288"/>
<line fill="#000000" stroke="#000000" stroke-width="1" x1="89" x2="89" y1="293" y2="298"/>
<line fill="#000000" stroke="#000000" stroke-width="1" x1="89" x2="89" y1="303" y2="308"/>
<line fill="#000000" stroke="#000000" stroke-width="1" x1="89" x2="89" y1="313" y2="318"/>
<line fill="#000000" stroke="#000000" stroke-width="1" x1="89" x2="89" y1="323" y2="328"/>
<line fill="#000000" stroke="#000000" stroke-width="1" x1="89" x2="89" y1="333" y2="338"/>
<line fill="#000000" stroke="#000000" stroke-width="1" x1="89" x2="89" y1="343" y2="348"/>
<line fill="#000000" stroke="#000000" stroke-width="1" x1="89" x2="89" y1="353" y2="358"/>
<line fill="#000000" stroke="#000000" stroke-width="1" x1="89" x2="89" y1="363" y2="368"/>
<line fill="#000000" stroke="#000000" stroke-width="1" x1="89" x2="89" y1="373" y2="378"/>
<line fill="#000000" stroke="#000000" stroke-width="1" x1="89" x2="89" y1="383" y2="388"/>
<line fill="#000000" stroke="#000000" stroke-width="1" x1="89" x2="89" y1="393" y2="398"/>
<line fill="#000000" stroke="#000000" stroke-width="1" x1="89" x2="89" y1="403" y2="408"/>
<line fill="#000000" stroke="#000000" stroke-width="1" x1="89" x2="89" y1="413" y2="418"/>
<line fill="#000000" stroke="#000000" stroke-width="1" x1="89" x2="89" y1="423" y2="428"/>
<line fill="#000000" stroke="#000000" stroke-width="1" x1="89" x2="89" y1="433" y2="438"/>
<line fill="#000000" stroke="#000000" stroke-width="1" x1="89" x2="89" y1="443" y2="447"/>
<rect fill="#ffffff" height="384" stroke="#ffffff" stroke-width="1" width="20" x="79" y="63"/>
<rect fill="none" height="384" stroke="#000000" stroke-width="1" width="20" x="79" y="63"/>
<rect fill="#ffffff" height="50" stroke="#ffffff" stroke-width="1" width="150" x="14" y="14"/>
<rect fill="none" height="50" stroke="#000000" stroke-width="1" width="150" x="14" y="14"/>
<text font-family="Lucida Grande" font-size="13" x="73" y="28">
:TDC</text>
<line fill="#000000" stroke="#000000" stroke-width="1" x1="518" x2="518" y1="63" y2="68"/>
<line fill="#000000" stroke="#000000" stroke-width="1" x1="518" x2="518" y1="73" y2="78"/>
<line fill="#000000" stroke="#000000" stroke-width="1" x1="518" x2="518" y1="83" y2="88"/>
<line fill="#000000" stroke="#000000" stroke-width="1" x1="518" x2="518" y1="93" y2="98"/>
<line fill="#000000" stroke="#000000" stroke-width="1" x1="518" x2="518" y1="103" y2="108"/>
<line fill="#000000" stroke="#000000" stroke-width="1" x1="518" x2="518" y1="113" y2="118"/>
<line fill="#000000" stroke="#000000" stroke-width="1" x1="518" x2="518" y1="123" y2="128"/>
<line fill="#000000" stroke="#000000" stroke-width="1" x1="518" x2="518" y1="133" y2="138"/>
<line fill="#000000" stroke="#000000" stroke-width="1" x1="518" x2="518" y1="143" y2="148"/>
<line fill="#000000" stroke="#000000" stroke-width="1" x1="518" x2="518" y1="153" y2="158"/>
<line fill="#000000" stroke="#000000" stroke-width="1" x1="518" x2="518" y1="163" y2="168"/>
<line fill="#000000" stroke="#000000" stroke-width="1" x1="518" x2="518" y1="173" y2="178"/>
<line fill="#000000" stroke="#000000" stroke-width="1" x1="518" x2="518" y1="183" y2="188"/>
<line fill="#000000" stroke="#000000" stroke-width="1" x1="518" x2="518" y1="193" y2="198"/>
<line fill="#000000" stroke="#000000" stroke-width="1" x1="518" x2="518" y1="203" y2="208"/>
<line fill="#000000" stroke="#000000" stroke-width="1" x1="518" x2="518" y1="213" y2="218"/>
<line fill="#000000" stroke="#000000" stroke-width="1" x1="518" x2="518" y1="223" y2="228"/>
<line fill="#000000" stroke="#000000" stroke-width="1" x1="518" x2="518" y1="233" y2="238"/>
<line fill="#000000" stroke="#000000" stroke-width="1" x1="518" x2="518" y1="243" y2="248"/>
<line fill="#000000" stroke="#000000" stroke-width="1" x1="518" x2="518" y1="253" y2="258"/>
<line fill="#000000" stroke="#000000" stroke-width="1" x1="518" x2="518" y1="263" y2="268"/>
<line fill="#000000" stroke="#000000" stroke-width="1" x1="518" x2="518" y1="273" y2="278"/>
<line fill="#000000" stroke="#000000" stroke-width="1" x1="518" x2="518" y1="283" y2="288"/>
<line fill="#000000" stroke="#000000" stroke-width="1" x1="518" x2="518" y1="293" y2="298"/>
<line fill="#000000" stroke="#000000" stroke-width="1" x1="518" x2="518" y1="303" y2="308"/>
<line fill="#000000" stroke="#000000" stroke-width="1" x1="518" x2="518" y1="313" y2="318"/>
<line fill="#000000" stroke="#000000" stroke-width="1" x1="518" x2="518" y1="323" y2="328"/>
<line fill="#000000" stroke="#000000" stroke-width="1" x1="518" x2="518" y1="333" y2="338"/>
<line fill="#000000" stroke="#000000" stroke-width="1" x1="518" x2="518" y1="343" y2="348"/>
<line fill="#000000" stroke="#000000" stroke-width="1" x1="518" x2="518" y1="353" y2="358"/>
<line fill="#000000" stroke="#000000" stroke-width="1" x1="518" x2="518" y1="363" y2="368"/>
<line fill="#000000" stroke="#000000" stroke-width="1" x1="518" x2="518" y1="373" y2="378"/>
<line fill="#000000" stroke="#000000" stroke-width="1" x1="518" x2="518" y1="383" y2="388"/>
<line fill="#000000" stroke="#000000" stroke-width="1" x1="518" x2="518" y1="393" y2="398"/>
<line fill="#000000" stroke="#000000" stroke-width="1" x1="518" x2="518" y1="403" y2="408"/>
<line fill="#000000" stroke="#000000" stroke-width="1" x1="518" x2="518" y1="413" y2="418"/>
<line fill="#000000" stroke="#000000" stroke-width="1" x1="518" x2="518" y1="423" y2="428"/>
<line fill="#000000" stroke="#000000" stroke-width="1" x1="518" x2="518" y1="433" y2="438"/>
<line fill="#000000" stroke="#000000" stroke-width="1" x1="518" x2="518" y1="443" y2="447"/>
<rect fill="#ffffff" height="384" stroke="#ffffff" stroke-width="1" width="20" x="508" y="63"/>
<rect fill="none" height="384" stroke="#000000" stroke-width="1" width="20" x="508" y="63"/>
<rect fill="#ffffff" height="50" stroke="#ffffff" stroke-width="1" width="144" x="446" y="14"/>
<rect fill="none" height="50" stroke="#000000" stroke-width="1" width="144" x="446" y="14"/>
<text font-family="Lucida Grande" font-size="13" x="491" y="28">
:Sistema</text>
<polyline fill="none" points="99,104 508,104" stroke="#000000" stroke-width="1"/>
<line fill="#000000" stroke="#000000" stroke-width="1" x1="496" x2="508" y1="111" y2="104"/>
<line fill="#000000" stroke="#000000" stroke-width="1" x1="496" x2="508" y1="97" y2="104"/>
<text font-family="Lucida Grande" font-size="13" x="234" y="99">
1:Click pulsante "accetta invito"</text>
<polyline fill="none" points="99,160 508,160" stroke="#000000" stroke-width="1"/>
<line fill="#000000" stroke="#000000" stroke-width="1" x1="496" x2="508" y1="167" y2="160"/>
<line fill="#000000" stroke="#000000" stroke-width="1" x1="496" x2="508" y1="153" y2="160"/>
<text font-family="Lucida Grande" font-size="13" x="279" y="155">
2:Login</text>
<rect fill="none" height="64" stroke="#000000" stroke-width="1" width="520" x="54" y="192"/>
<polyline fill="none" points="99,224 508,224" stroke="#000000" stroke-width="1"/>
<line fill="#000000" stroke="#000000" stroke-width="1" x1="496" x2="508" y1="231" y2="224"/>
<line fill="#000000" stroke="#000000" stroke-width="1" x1="496" x2="508" y1="217" y2="224"/>
<text font-family="Lucida Grande" font-size="13" x="259" y="219">
2:Registrazione</text>
<line fill="#000000" stroke="#000000" stroke-width="1" x1="508" x2="503" y1="288" y2="288"/>
<line fill="#000000" stroke="#000000" stroke-width="1" x1="498" x2="493" y1="288" y2="288"/>
<line fill="#000000" stroke="#000000" stroke-width="1" x1="488" x2="483" y1="288" y2="288"/>
<line fill="#000000" stroke="#000000" stroke-width="1" x1="478" x2="473" y1="288" y2="288"/>
<line fill="#000000" stroke="#000000" stroke-width="1" x1="468" x2="463" y1="288" y2="288"/>
<line fill="#000000" stroke="#000000" stroke-width="1" x1="458" x2="453" y1="288" y2="288"/>
<line fill="#000000" stroke="#000000" stroke-width="1" x1="448" x2="443" y1="288" y2="288"/>
<line fill="#000000" stroke="#000000" stroke-width="1" x1="438" x2="433" y1="288" y2="288"/>
<line fill="#000000" stroke="#000000" stroke-width="1" x1="428" x2="423" y1="288" y2="288"/>
<line fill="#000000" stroke="#000000" stroke-width="1" x1="418" x2="413" y1="288" y2="288"/>
<line fill="#000000" stroke="#000000" stroke-width="1" x1="408" x2="403" y1="288" y2="288"/>
<line fill="#000000" stroke="#000000" stroke-width="1" x1="398" x2="393" y1="288" y2="288"/>
<line fill="#000000" stroke="#000000" stroke-width="1" x1="388" x2="383" y1="288" y2="288"/>
<line fill="#000000" stroke="#000000" stroke-width="1" x1="378" x2="373" y1="288" y2="288"/>
<line fill="#000000" stroke="#000000" stroke-width="1" x1="368" x2="363" y1="288" y2="288"/>
<line fill="#000000" stroke="#000000" stroke-width="1" x1="358" x2="353" y1="288" y2="288"/>
<line fill="#000000" stroke="#000000" stroke-width="1" x1="348" x2="343" y1="288" y2="288"/>
<line fill="#000000" stroke="#000000" stroke-width="1" x1="338" x2="333" y1="288" y2="288"/>
<line fill="#000000" stroke="#000000" stroke-width="1" x1="328" x2="323" y1="288" y2="288"/>
<line fill="#000000" stroke="#000000" stroke-width="1" x1="318" x2="313" y1="288" y2="288"/>
<line fill="#000000" stroke="#000000" stroke-width="1" x1="308" x2="303" y1="288" y2="288"/>
<line fill="#000000" stroke="#000000" stroke-width="1" x1="298" x2="293" y1="288" y2="288"/>
<line fill="#000000" stroke="#000000" stroke-width="1" x1="288" x2="283" y1="288" y2="288"/>
<line fill="#000000" stroke="#000000" stroke-width="1" x1="278" x2="273" y1="288" y2="288"/>
<line fill="#000000" stroke="#000000" stroke-width="1" x1="268" x2="263" y1="288" y2="288"/>
<line fill="#000000" stroke="#000000" stroke-width="1" x1="258" x2="253" y1="288" y2="288"/>
<line fill="#000000" stroke="#000000" stroke-width="1" x1="248" x2="243" y1="288" y2="288"/>
<line fill="#000000" stroke="#000000" stroke-width="1" x1="238" x2="233" y1="288" y2="288"/>
<line fill="#000000" stroke="#000000" stroke-width="1" x1="228" x2="223" y1="288" y2="288"/>
<line fill="#000000" stroke="#000000" stroke-width="1" x1="218" x2="213" y1="288" y2="288"/>
<line fill="#000000" stroke="#000000" stroke-width="1" x1="208" x2="203" y1="288" y2="288"/>
<line fill="#000000" stroke="#000000" stroke-width="1" x1="198" x2="193" y1="288" y2="288"/>
<line fill="#000000" stroke="#000000" stroke-width="1" x1="188" x2="183" y1="288" y2="288"/>
<line fill="#000000" stroke="#000000" stroke-width="1" x1="178" x2="173" y1="288" y2="288"/>
<line fill="#000000" stroke="#000000" stroke-width="1" x1="168" x2="163" y1="288" y2="288"/>
<line fill="#000000" stroke="#000000" stroke-width="1" x1="158" x2="153" y1="288" y2="288"/>
<line fill="#000000" stroke="#000000" stroke-width="1" x1="148" x2="143" y1="288" y2="288"/>
<line fill="#000000" stroke="#000000" stroke-width="1" x1="138" x2="133" y1="288" y2="288"/>
<line fill="#000000" stroke="#000000" stroke-width="1" x1="128" x2="123" y1="288" y2="288"/>
<line fill="#000000" stroke="#000000" stroke-width="1" x1="118" x2="113" y1="288" y2="288"/>
<line fill="#000000" stroke="#000000" stroke-width="1" x1="108" x2="103" y1="288" y2="288"/>
<line fill="#000000" stroke="#000000" stroke-width="1" x1="111" x2="99" y1="281" y2="288"/>
<line fill="#000000" stroke="#000000" stroke-width="1" x1="111" x2="99" y1="295" y2="288"/>
<text font-family="Lucida Grande" font-size="13" x="214" y="283">
3:Reindirizzamento pagina di conferma</text>
<polyline fill="none" points="99,336 508,336" stroke="#000000" stroke-width="1"/>
<line fill="#000000" stroke="#000000" stroke-width="1" x1="496" x2="508" y1="343" y2="336"/>
<line fill="#000000" stroke="#000000" stroke-width="1" x1="496" x2="508" y1="329" y2="336"/>
<text font-family="Lucida Grande" font-size="13" x="259" y="331">
4:Conferma</text>
<line fill="#000000" stroke="#000000" stroke-width="1" x1="528" x2="546" y1="376" y2="376"/>
<line fill="#000000" stroke="#000000" stroke-width="1" x1="546" x2="563" y1="376" y2="377"/>
<line fill="#000000" stroke="#000000" stroke-width="1" x1="563" x2="577" y1="377" y2="378"/>
<line fill="#000000" stroke="#000000" stroke-width="1" x1="577" x2="588" y1="378" y2="380"/>
<line fill="#000000" stroke="#000000" stroke-width="1" x1="588" x2="596" y1="380" y2="382"/>
<line fill="#000000" stroke="#000000" stroke-width="1" x1="596" x2="601" y1="382" y2="384"/>
<line fill="#000000" stroke="#000000" stroke-width="1" x1="601" x2="602" y1="384" y2="385"/>
<line fill="#000000" stroke="#000000" stroke-width="1" x1="602" x2="601" y1="385" y2="387"/>
<line fill="#000000" stroke="#000000" stroke-width="1" x1="601" x2="596" y1="387" y2="389"/>
<line fill="#000000" stroke="#000000" stroke-width="1" x1="596" x2="588" y1="389" y2="391"/>
<line fill="#000000" stroke="#000000" stroke-width="1" x1="588" x2="569" y1="391" y2="392"/>
<line fill="#000000" stroke="#000000" stroke-width="1" x1="569" x2="553" y1="392" y2="394"/>
<line fill="#000000" stroke="#000000" stroke-width="1" x1="553" x2="539" y1="394" y2="395"/>
<line fill="#000000" stroke="#000000" stroke-width="1" x1="539" x2="528" y1="395" y2="396"/>
<line fill="#000000" stroke="#000000" stroke-width="1" x1="540" x2="528" y1="389" y2="396"/>
<line fill="#000000" stroke="#000000" stroke-width="1" x1="540" x2="528" y1="403" y2="396"/>
<text font-family="Lucida Grande" font-size="13" x="630" y="391">
5:Il sistema salva la preferenza come accettata</text>
</svg>
