<?xml version="1.0" encoding="utf-8" ?>
<!DOCTYPE svg PUBLIC "-//W3C//DTD SVG 1.1//EN" "http://www.w3.org/Graphics/SVG/1.1/DTD/svg11.dtd">
<svg height="537" version="1.1" width="700" xmlns="http://www.w3.org/2000/svg">
<line fill="#000000" stroke="#000000" stroke-width="1" x1="89" x2="89" y1="63" y2="68"/>
<line fill="#000000" stroke="#000000" stroke-width="1" x1="89" x2="89" y1="73" y2="78"/>
<line fill="#000000" stroke="#000000" stroke-width="1" x1="89" x2="89" y1="83" y2="88"/>
<line fill="#000000" stroke="#000000" stroke-width="1" x1="89" x2="89" y1="93" y2="98"/>
<line fill="#000000" stroke="#000000" stroke-width="1" x1="89" x2="89" y1="103" y2="108"/>
<line fill="#000000" stroke="#000000" stroke-width="1" x1="89" x2="89" y1="113" y2="118"/>
<line fill="#000000" stroke="#000000" stroke-width="1" x1="89" x2="89" y1="123" y2="128"/>
<line fill="#000000" stroke="#000000" stroke-width="1" x1="89" x2="89" y1="133" y2="138"/>
<line fill="#000000" stroke="#000000" stroke-width="1" x1="89" x2="89" y1="143" y2="148"/>
<line fill="#000000" stroke="#000000" stroke-width="1" x1="89" x2="89" y1="153" y2="158"/>
<line fill="#000000" stroke="#000000" stroke-width="1" x1="89" x2="89" y1="163" y2="168"/>
<line fill="#000000" stroke="#000000" stroke-width="1" x1="89" x2="89" y1="173" y2="178"/>
<line fill="#000000" stroke="#000000" stroke-width="1" x1="89" x2="89" y1="183" y2="188"/>
<line fill="#000000" stroke="#000000" stroke-width="1" x1="89" x2="89" y1="193" y2="198"/>
<line fill="#000000" stroke="#000000" stroke-width="1" x1="89" x2="89" y1="203" y2="208"/>
<line fill="#000000" stroke="#000000" stroke-width="1" x1="89" x2="89" y1="213" y2="218"/>
<line fill="#000000" stroke="#000000" stroke-width="1" x1="89" x2="89" y1="223" y2="228"/>
<line fill="#000000" stroke="#000000" stroke-width="1" x1="89" x2="89" y1="233" y2="238"/>
<line fill="#000000" stroke="#000000" stroke-width="1" x1="89" x2="89" y1="243" y2="248"/>
<line fill="#000000" stroke="#000000" stroke-width="1" x1="89" x2="89" y1="253" y2="258"/>
<line fill="#000000" stroke="#000000" stroke-width="1" x1="89" x2="89" y1="263" y2="268"/>
<line fill="#000000" stroke="#000000" stroke-width="1" x1="89" x2="89" y1="273" y2="278"/>
<line fill="#000000" stroke="#000000" stroke-width="1" x1="89" x2="89" y1="283" y2="288"/>
<line fill="#000000" stroke="#000000" stroke-width="1" x1="89" x2="89" y1="293" y2="298"/>
<line fill="#000000" stroke="#000000" stroke-width="1" x1="89" x2="89" y1="303" y2="308"/>
<line fill="#000000" stroke="#000000" stroke-width="1" x1="89" x2="89" y1="313" y2="318"/>
<line fill="#000000" stroke="#000000" stroke-width="1" x1="89" x2="89" y1="323" y2="328"/>
<line fill="#000000" stroke="#000000" stroke-width="1" x1="89" x2="89" y1="333" y2="338"/>
<line fill="#000000" stroke="#000000" stroke-width="1" x1="89" x2="89" y1="343" y2="348"/>
<line fill="#000000" stroke="#000000" stroke-width="1" x1="89" x2="89" y1="353" y2="358"/>
<line fill="#000000" stroke="#000000" stroke-width="1" x1="89" x2="89" y1="363" y2="368"/>
<line fill="#000000" stroke="#000000" stroke-width="1" x1="89" x2="89" y1="373" y2="378"/>
<line fill="#000000" stroke="#000000" stroke-width="1" x1="89" x2="89" y1="383" y2="388"/>
<line fill="#000000" stroke="#000000" stroke-width="1" x1="89" x2="89" y1="393" y2="398"/>
<line fill="#000000" stroke="#000000" stroke-width="1" x1="89" x2="89" y1="403" y2="408"/>
<line fill="#000000" stroke="#000000" stroke-width="1" x1="89" x2="89" y1="413" y2="418"/>
<line fill="#000000" stroke="#000000" stroke-width="1" x1="89" x2="89" y1="423" y2="428"/>
<line fill="#000000" stroke="#000000" stroke-width="1" x1="89" x2="89" y1="433" y2="438"/>
<line fill="#000000" stroke="#000000" stroke-width="1" x1="89" x2="89" y1="443" y2="448"/>
<line fill="#000000" stroke="#000000" stroke-width="1" x1="89" x2="89" y1="453" y2="458"/>
<line fill="#000000" stroke="#000000" stroke-width="1" x1="89" x2="89" y1="463" y2="468"/>
<line fill="#000000" stroke="#000000" stroke-width="1" x1="89" x2="89" y1="473" y2="478"/>
<line fill="#000000" stroke="#000000" stroke-width="1" x1="89" x2="89" y1="483" y2="488"/>
<line fill="#000000" stroke="#000000" stroke-width="1" x1="89" x2="89" y1="493" y2="498"/>
<line fill="#000000" stroke="#000000" stroke-width="1" x1="89" x2="89" y1="503" y2="508"/>
<line fill="#000000" stroke="#000000" stroke-width="1" x1="89" x2="89" y1="513" y2="518"/>
<rect fill="#ffffff" height="459" stroke="#ffffff" stroke-width="1" width="20" x="79" y="63"/>
<rect fill="none" height="459" stroke="#000000" stroke-width="1" width="20" x="79" y="63"/>
<rect fill="#ffffff" height="50" stroke="#ffffff" stroke-width="1" width="150" x="14" y="14"/>
<rect fill="none" height="50" stroke="#000000" stroke-width="1" width="150" x="14" y="14"/>
<text font-family="Lucida Grande" font-size="13" x="73" y="28">
:TDC</text>
<line fill="#000000" stroke="#000000" stroke-width="1" x1="485" x2="485" y1="63" y2="68"/>
<line fill="#000000" stroke="#000000" stroke-width="1" x1="485" x2="485" y1="73" y2="78"/>
<line fill="#000000" stroke="#000000" stroke-width="1" x1="485" x2="485" y1="83" y2="88"/>
<line fill="#000000" stroke="#000000" stroke-width="1" x1="485" x2="485" y1="93" y2="98"/>
<line fill="#000000" stroke="#000000" stroke-width="1" x1="485" x2="485" y1="103" y2="108"/>
<line fill="#000000" stroke="#000000" stroke-width="1" x1="485" x2="485" y1="113" y2="118"/>
<line fill="#000000" stroke="#000000" stroke-width="1" x1="485" x2="485" y1="123" y2="128"/>
<line fill="#000000" stroke="#000000" stroke-width="1" x1="485" x2="485" y1="133" y2="138"/>
<line fill="#000000" stroke="#000000" stroke-width="1" x1="485" x2="485" y1="143" y2="148"/>
<line fill="#000000" stroke="#000000" stroke-width="1" x1="485" x2="485" y1="153" y2="158"/>
<line fill="#000000" stroke="#000000" stroke-width="1" x1="485" x2="485" y1="163" y2="168"/>
<line fill="#000000" stroke="#000000" stroke-width="1" x1="485" x2="485" y1="173" y2="178"/>
<line fill="#000000" stroke="#000000" stroke-width="1" x1="485" x2="485" y1="183" y2="188"/>
<line fill="#000000" stroke="#000000" stroke-width="1" x1="485" x2="485" y1="193" y2="198"/>
<line fill="#000000" stroke="#000000" stroke-width="1" x1="485" x2="485" y1="203" y2="208"/>
<line fill="#000000" stroke="#000000" stroke-width="1" x1="485" x2="485" y1="213" y2="218"/>
<line fill="#000000" stroke="#000000" stroke-width="1" x1="485" x2="485" y1="223" y2="228"/>
<line fill="#000000" stroke="#000000" stroke-width="1" x1="485" x2="485" y1="233" y2="238"/>
<line fill="#000000" stroke="#000000" stroke-width="1" x1="485" x2="485" y1="243" y2="248"/>
<line fill="#000000" stroke="#000000" stroke-width="1" x1="485" x2="485" y1="253" y2="258"/>
<line fill="#000000" stroke="#000000" stroke-width="1" x1="485" x2="485" y1="263" y2="268"/>
<line fill="#000000" stroke="#000000" stroke-width="1" x1="485" x2="485" y1="273" y2="278"/>
<line fill="#000000" stroke="#000000" stroke-width="1" x1="485" x2="485" y1="283" y2="288"/>
<line fill="#000000" stroke="#000000" stroke-width="1" x1="485" x2="485" y1="293" y2="298"/>
<line fill="#000000" stroke="#000000" stroke-width="1" x1="485" x2="485" y1="303" y2="308"/>
<line fill="#000000" stroke="#000000" stroke-width="1" x1="485" x2="485" y1="313" y2="318"/>
<line fill="#000000" stroke="#000000" stroke-width="1" x1="485" x2="485" y1="323" y2="328"/>
<line fill="#000000" stroke="#000000" stroke-width="1" x1="485" x2="485" y1="333" y2="338"/>
<line fill="#000000" stroke="#000000" stroke-width="1" x1="485" x2="485" y1="343" y2="348"/>
<line fill="#000000" stroke="#000000" stroke-width="1" x1="485" x2="485" y1="353" y2="358"/>
<line fill="#000000" stroke="#000000" stroke-width="1" x1="485" x2="485" y1="363" y2="368"/>
<line fill="#000000" stroke="#000000" stroke-width="1" x1="485" x2="485" y1="373" y2="378"/>
<line fill="#000000" stroke="#000000" stroke-width="1" x1="485" x2="485" y1="383" y2="388"/>
<line fill="#000000" stroke="#000000" stroke-width="1" x1="485" x2="485" y1="393" y2="398"/>
<line fill="#000000" stroke="#000000" stroke-width="1" x1="485" x2="485" y1="403" y2="408"/>
<line fill="#000000" stroke="#000000" stroke-width="1" x1="485" x2="485" y1="413" y2="418"/>
<line fill="#000000" stroke="#000000" stroke-width="1" x1="485" x2="485" y1="423" y2="428"/>
<line fill="#000000" stroke="#000000" stroke-width="1" x1="485" x2="485" y1="433" y2="438"/>
<line fill="#000000" stroke="#000000" stroke-width="1" x1="485" x2="485" y1="443" y2="448"/>
<line fill="#000000" stroke="#000000" stroke-width="1" x1="485" x2="485" y1="453" y2="458"/>
<line fill="#000000" stroke="#000000" stroke-width="1" x1="485" x2="485" y1="463" y2="468"/>
<line fill="#000000" stroke="#000000" stroke-width="1" x1="485" x2="485" y1="473" y2="478"/>
<line fill="#000000" stroke="#000000" stroke-width="1" x1="485" x2="485" y1="483" y2="488"/>
<line fill="#000000" stroke="#000000" stroke-width="1" x1="485" x2="485" y1="493" y2="498"/>
<line fill="#000000" stroke="#000000" stroke-width="1" x1="485" x2="485" y1="503" y2="508"/>
<line fill="#000000" stroke="#000000" stroke-width="1" x1="485" x2="485" y1="513" y2="518"/>
<rect fill="#ffffff" height="459" stroke="#ffffff" stroke-width="1" width="20" x="475" y="63"/>
<rect fill="none" height="459" stroke="#000000" stroke-width="1" width="20" x="475" y="63"/>
<rect fill="#ffffff" height="50" stroke="#ffffff" stroke-width="1" width="144" x="413" y="14"/>
<rect fill="none" height="50" stroke="#000000" stroke-width="1" width="144" x="413" y="14"/>
<text font-family="Lucida Grande" font-size="13" x="458" y="28">
:Sistema</text>
<polyline fill="none" points="99,99 475,99" stroke="#000000" stroke-width="1"/>
<line fill="#000000" stroke="#000000" stroke-width="1" x1="463" x2="475" y1="106" y2="99"/>
<line fill="#000000" stroke="#000000" stroke-width="1" x1="463" x2="475" y1="92" y2="99"/>
<text font-family="Lucida Grande" font-size="13" x="196" y="94">
1:Richiesta area ricerca utenti</text>
<polyline fill="none" points="99,147 475,147" stroke="#000000" stroke-width="1"/>
<line fill="#000000" stroke="#000000" stroke-width="1" x1="463" x2="475" y1="154" y2="147"/>
<line fill="#000000" stroke="#000000" stroke-width="1" x1="463" x2="475" y1="140" y2="147"/>
<text font-family="Lucida Grande" font-size="13" x="205" y="142">
2:inserimento mail altro utente</text>
<polyline fill="none" points="99,203 475,203" stroke="#000000" stroke-width="1"/>
<line fill="#000000" stroke="#000000" stroke-width="1" x1="463" x2="475" y1="210" y2="203"/>
<line fill="#000000" stroke="#000000" stroke-width="1" x1="463" x2="475" y1="196" y2="203"/>
<text font-family="Lucida Grande" font-size="13" x="172" y="198">
3:Richiesta lista desideri utente selezionato</text>
<polyline fill="none" points="99,259 475,259" stroke="#000000" stroke-width="1"/>
<line fill="#000000" stroke="#000000" stroke-width="1" x1="463" x2="475" y1="266" y2="259"/>
<line fill="#000000" stroke="#000000" stroke-width="1" x1="463" x2="475" y1="252" y2="259"/>
<text font-family="Lucida Grande" font-size="13" x="243" y="254">
4:Scorre la lista dei pacchetti</text>
<polyline fill="none" points="99,315 475,315" stroke="#000000" stroke-width="1"/>
<line fill="#000000" stroke="#000000" stroke-width="1" x1="463" x2="475" y1="322" y2="315"/>
<line fill="#000000" stroke="#000000" stroke-width="1" x1="463" x2="475" y1="308" y2="315"/>
<text font-family="Lucida Grande" font-size="13" x="243" y="310">
5:Seleziona un pacchetto</text>
<polyline fill="none" points="99,379 475,379" stroke="#000000" stroke-width="1"/>
<line fill="#000000" stroke="#000000" stroke-width="1" x1="463" x2="475" y1="386" y2="379"/>
<line fill="#000000" stroke="#000000" stroke-width="1" x1="463" x2="475" y1="372" y2="379"/>
<text font-family="Lucida Grande" font-size="13" x="243" y="374">
6:Clicca su regala</text>
<line fill="#000000" stroke="#000000" stroke-width="1" x1="495" x2="513" y1="427" y2="427"/>
<line fill="#000000" stroke="#000000" stroke-width="1" x1="513" x2="530" y1="427" y2="428"/>
<line fill="#000000" stroke="#000000" stroke-width="1" x1="530" x2="544" y1="428" y2="429"/>
<line fill="#000000" stroke="#000000" stroke-width="1" x1="544" x2="555" y1="429" y2="431"/>
<line fill="#000000" stroke="#000000" stroke-width="1" x1="555" x2="563" y1="431" y2="433"/>
<line fill="#000000" stroke="#000000" stroke-width="1" x1="563" x2="568" y1="433" y2="435"/>
<line fill="#000000" stroke="#000000" stroke-width="1" x1="568" x2="569" y1="435" y2="436"/>
<line fill="#000000" stroke="#000000" stroke-width="1" x1="569" x2="568" y1="436" y2="438"/>
<line fill="#000000" stroke="#000000" stroke-width="1" x1="568" x2="563" y1="438" y2="440"/>
<line fill="#000000" stroke="#000000" stroke-width="1" x1="563" x2="555" y1="440" y2="442"/>
<line fill="#000000" stroke="#000000" stroke-width="1" x1="555" x2="536" y1="442" y2="443"/>
<line fill="#000000" stroke="#000000" stroke-width="1" x1="536" x2="520" y1="443" y2="445"/>
<line fill="#000000" stroke="#000000" stroke-width="1" x1="520" x2="506" y1="445" y2="446"/>
<line fill="#000000" stroke="#000000" stroke-width="1" x1="506" x2="495" y1="446" y2="447"/>
<line fill="#000000" stroke="#000000" stroke-width="1" x1="507" x2="495" y1="440" y2="447"/>
<line fill="#000000" stroke="#000000" stroke-width="1" x1="507" x2="495" y1="454" y2="447"/>
<text font-family="Lucida Grande" font-size="13" x="597" y="442">
7:Pacchetto inserito nella lista dei comprati ma non pagati</text>
</svg>
