<?xml version="1.0" encoding="utf-8" ?>
<!DOCTYPE svg PUBLIC "-//W3C//DTD SVG 1.1//EN" "http://www.w3.org/Graphics/SVG/1.1/DTD/svg11.dtd">
<svg height="304" version="1.1" width="804" xmlns="http://www.w3.org/2000/svg">
<line fill="#000000" stroke="#000000" stroke-width="1" x1="89" x2="89" y1="63" y2="68"/>
<line fill="#000000" stroke="#000000" stroke-width="1" x1="89" x2="89" y1="73" y2="78"/>
<line fill="#000000" stroke="#000000" stroke-width="1" x1="89" x2="89" y1="83" y2="88"/>
<line fill="#000000" stroke="#000000" stroke-width="1" x1="89" x2="89" y1="93" y2="98"/>
<line fill="#000000" stroke="#000000" stroke-width="1" x1="89" x2="89" y1="103" y2="108"/>
<line fill="#000000" stroke="#000000" stroke-width="1" x1="89" x2="89" y1="113" y2="118"/>
<line fill="#000000" stroke="#000000" stroke-width="1" x1="89" x2="89" y1="123" y2="128"/>
<line fill="#000000" stroke="#000000" stroke-width="1" x1="89" x2="89" y1="133" y2="138"/>
<line fill="#000000" stroke="#000000" stroke-width="1" x1="89" x2="89" y1="143" y2="148"/>
<line fill="#000000" stroke="#000000" stroke-width="1" x1="89" x2="89" y1="153" y2="158"/>
<line fill="#000000" stroke="#000000" stroke-width="1" x1="89" x2="89" y1="163" y2="168"/>
<line fill="#000000" stroke="#000000" stroke-width="1" x1="89" x2="89" y1="173" y2="178"/>
<line fill="#000000" stroke="#000000" stroke-width="1" x1="89" x2="89" y1="183" y2="188"/>
<line fill="#000000" stroke="#000000" stroke-width="1" x1="89" x2="89" y1="193" y2="198"/>
<line fill="#000000" stroke="#000000" stroke-width="1" x1="89" x2="89" y1="203" y2="208"/>
<line fill="#000000" stroke="#000000" stroke-width="1" x1="89" x2="89" y1="213" y2="218"/>
<line fill="#000000" stroke="#000000" stroke-width="1" x1="89" x2="89" y1="223" y2="228"/>
<line fill="#000000" stroke="#000000" stroke-width="1" x1="89" x2="89" y1="233" y2="238"/>
<line fill="#000000" stroke="#000000" stroke-width="1" x1="89" x2="89" y1="243" y2="248"/>
<line fill="#000000" stroke="#000000" stroke-width="1" x1="89" x2="89" y1="253" y2="258"/>
<line fill="#000000" stroke="#000000" stroke-width="1" x1="89" x2="89" y1="263" y2="268"/>
<line fill="#000000" stroke="#000000" stroke-width="1" x1="89" x2="89" y1="273" y2="278"/>
<line fill="#000000" stroke="#000000" stroke-width="1" x1="89" x2="89" y1="283" y2="288"/>
<rect fill="#ffffff" height="226" stroke="#ffffff" stroke-width="1" width="20" x="79" y="63"/>
<rect fill="none" height="226" stroke="#000000" stroke-width="1" width="20" x="79" y="63"/>
<rect fill="#ffffff" height="50" stroke="#ffffff" stroke-width="1" width="150" x="14" y="14"/>
<rect fill="none" height="50" stroke="#000000" stroke-width="1" width="150" x="14" y="14"/>
<text font-family="Lucida Grande" font-size="13" x="73" y="28">
:TDC</text>
<line fill="#000000" stroke="#000000" stroke-width="1" x1="588" x2="588" y1="63" y2="68"/>
<line fill="#000000" stroke="#000000" stroke-width="1" x1="588" x2="588" y1="73" y2="78"/>
<line fill="#000000" stroke="#000000" stroke-width="1" x1="588" x2="588" y1="83" y2="88"/>
<line fill="#000000" stroke="#000000" stroke-width="1" x1="588" x2="588" y1="93" y2="98"/>
<line fill="#000000" stroke="#000000" stroke-width="1" x1="588" x2="588" y1="103" y2="108"/>
<line fill="#000000" stroke="#000000" stroke-width="1" x1="588" x2="588" y1="113" y2="118"/>
<line fill="#000000" stroke="#000000" stroke-width="1" x1="588" x2="588" y1="123" y2="128"/>
<line fill="#000000" stroke="#000000" stroke-width="1" x1="588" x2="588" y1="133" y2="138"/>
<line fill="#000000" stroke="#000000" stroke-width="1" x1="588" x2="588" y1="143" y2="148"/>
<line fill="#000000" stroke="#000000" stroke-width="1" x1="588" x2="588" y1="153" y2="158"/>
<line fill="#000000" stroke="#000000" stroke-width="1" x1="588" x2="588" y1="163" y2="168"/>
<line fill="#000000" stroke="#000000" stroke-width="1" x1="588" x2="588" y1="173" y2="178"/>
<line fill="#000000" stroke="#000000" stroke-width="1" x1="588" x2="588" y1="183" y2="188"/>
<line fill="#000000" stroke="#000000" stroke-width="1" x1="588" x2="588" y1="193" y2="198"/>
<line fill="#000000" stroke="#000000" stroke-width="1" x1="588" x2="588" y1="203" y2="208"/>
<line fill="#000000" stroke="#000000" stroke-width="1" x1="588" x2="588" y1="213" y2="218"/>
<line fill="#000000" stroke="#000000" stroke-width="1" x1="588" x2="588" y1="223" y2="228"/>
<line fill="#000000" stroke="#000000" stroke-width="1" x1="588" x2="588" y1="233" y2="238"/>
<line fill="#000000" stroke="#000000" stroke-width="1" x1="588" x2="588" y1="243" y2="248"/>
<line fill="#000000" stroke="#000000" stroke-width="1" x1="588" x2="588" y1="253" y2="258"/>
<line fill="#000000" stroke="#000000" stroke-width="1" x1="588" x2="588" y1="263" y2="268"/>
<line fill="#000000" stroke="#000000" stroke-width="1" x1="588" x2="588" y1="273" y2="278"/>
<line fill="#000000" stroke="#000000" stroke-width="1" x1="588" x2="588" y1="283" y2="288"/>
<rect fill="#ffffff" height="226" stroke="#ffffff" stroke-width="1" width="20" x="578" y="63"/>
<rect fill="none" height="226" stroke="#000000" stroke-width="1" width="20" x="578" y="63"/>
<rect fill="#ffffff" height="50" stroke="#ffffff" stroke-width="1" width="136" x="520" y="14"/>
<rect fill="none" height="50" stroke="#000000" stroke-width="1" width="136" x="520" y="14"/>
<text font-family="Lucida Grande" font-size="13" x="561" y="28">
:Sistema</text>
<polyline fill="none" points="99,114 578,114" stroke="#000000" stroke-width="1"/>
<line fill="#000000" stroke="#000000" stroke-width="1" x1="566" x2="578" y1="121" y2="114"/>
<line fill="#000000" stroke="#000000" stroke-width="1" x1="566" x2="578" y1="107" y2="114"/>
<text font-family="Lucida Grande" font-size="13" x="236" y="109">
1:L'utente preme il pulsante "acquista"</text>
<polyline fill="none" points="99,178 578,178" stroke="#000000" stroke-width="1"/>
<line fill="#000000" stroke="#000000" stroke-width="1" x1="566" x2="578" y1="185" y2="178"/>
<line fill="#000000" stroke="#000000" stroke-width="1" x1="566" x2="578" y1="171" y2="178"/>
<text font-family="Lucida Grande" font-size="13" x="295" y="173">
2:Conferma operazione</text>
<line fill="#000000" stroke="#000000" stroke-width="1" x1="598" x2="616" y1="218" y2="218"/>
<line fill="#000000" stroke="#000000" stroke-width="1" x1="616" x2="633" y1="218" y2="219"/>
<line fill="#000000" stroke="#000000" stroke-width="1" x1="633" x2="647" y1="219" y2="220"/>
<line fill="#000000" stroke="#000000" stroke-width="1" x1="647" x2="658" y1="220" y2="222"/>
<line fill="#000000" stroke="#000000" stroke-width="1" x1="658" x2="666" y1="222" y2="224"/>
<line fill="#000000" stroke="#000000" stroke-width="1" x1="666" x2="671" y1="224" y2="226"/>
<line fill="#000000" stroke="#000000" stroke-width="1" x1="671" x2="672" y1="226" y2="227"/>
<line fill="#000000" stroke="#000000" stroke-width="1" x1="672" x2="671" y1="227" y2="229"/>
<line fill="#000000" stroke="#000000" stroke-width="1" x1="671" x2="666" y1="229" y2="231"/>
<line fill="#000000" stroke="#000000" stroke-width="1" x1="666" x2="658" y1="231" y2="233"/>
<line fill="#000000" stroke="#000000" stroke-width="1" x1="658" x2="639" y1="233" y2="234"/>
<line fill="#000000" stroke="#000000" stroke-width="1" x1="639" x2="623" y1="234" y2="236"/>
<line fill="#000000" stroke="#000000" stroke-width="1" x1="623" x2="609" y1="236" y2="237"/>
<line fill="#000000" stroke="#000000" stroke-width="1" x1="609" x2="598" y1="237" y2="238"/>
<line fill="#000000" stroke="#000000" stroke-width="1" x1="610" x2="598" y1="231" y2="238"/>
<line fill="#000000" stroke="#000000" stroke-width="1" x1="610" x2="598" y1="245" y2="238"/>
<text font-family="Lucida Grande" font-size="13" x="702" y="233">
3:Inserimento pacchetto come comprato ma non pagato</text>
</svg>
