<?xml version="1.0" encoding="utf-8" ?>
<!DOCTYPE svg PUBLIC "-//W3C//DTD SVG 1.1//EN" "http://www.w3.org/Graphics/SVG/1.1/DTD/svg11.dtd">
<svg height="340" version="1.1" width="733" xmlns="http://www.w3.org/2000/svg">
<line fill="#000000" stroke="#000000" stroke-width="1" x1="89" x2="89" y1="63" y2="68"/>
<line fill="#000000" stroke="#000000" stroke-width="1" x1="89" x2="89" y1="73" y2="78"/>
<line fill="#000000" stroke="#000000" stroke-width="1" x1="89" x2="89" y1="83" y2="88"/>
<line fill="#000000" stroke="#000000" stroke-width="1" x1="89" x2="89" y1="93" y2="98"/>
<line fill="#000000" stroke="#000000" stroke-width="1" x1="89" x2="89" y1="103" y2="108"/>
<line fill="#000000" stroke="#000000" stroke-width="1" x1="89" x2="89" y1="113" y2="118"/>
<line fill="#000000" stroke="#000000" stroke-width="1" x1="89" x2="89" y1="123" y2="128"/>
<line fill="#000000" stroke="#000000" stroke-width="1" x1="89" x2="89" y1="133" y2="138"/>
<line fill="#000000" stroke="#000000" stroke-width="1" x1="89" x2="89" y1="143" y2="148"/>
<line fill="#000000" stroke="#000000" stroke-width="1" x1="89" x2="89" y1="153" y2="158"/>
<line fill="#000000" stroke="#000000" stroke-width="1" x1="89" x2="89" y1="163" y2="168"/>
<line fill="#000000" stroke="#000000" stroke-width="1" x1="89" x2="89" y1="173" y2="178"/>
<line fill="#000000" stroke="#000000" stroke-width="1" x1="89" x2="89" y1="183" y2="188"/>
<line fill="#000000" stroke="#000000" stroke-width="1" x1="89" x2="89" y1="193" y2="198"/>
<line fill="#000000" stroke="#000000" stroke-width="1" x1="89" x2="89" y1="203" y2="208"/>
<line fill="#000000" stroke="#000000" stroke-width="1" x1="89" x2="89" y1="213" y2="218"/>
<line fill="#000000" stroke="#000000" stroke-width="1" x1="89" x2="89" y1="223" y2="228"/>
<line fill="#000000" stroke="#000000" stroke-width="1" x1="89" x2="89" y1="233" y2="238"/>
<line fill="#000000" stroke="#000000" stroke-width="1" x1="89" x2="89" y1="243" y2="248"/>
<line fill="#000000" stroke="#000000" stroke-width="1" x1="89" x2="89" y1="253" y2="258"/>
<line fill="#000000" stroke="#000000" stroke-width="1" x1="89" x2="89" y1="263" y2="268"/>
<line fill="#000000" stroke="#000000" stroke-width="1" x1="89" x2="89" y1="273" y2="278"/>
<line fill="#000000" stroke="#000000" stroke-width="1" x1="89" x2="89" y1="283" y2="288"/>
<line fill="#000000" stroke="#000000" stroke-width="1" x1="89" x2="89" y1="293" y2="298"/>
<line fill="#000000" stroke="#000000" stroke-width="1" x1="89" x2="89" y1="303" y2="308"/>
<line fill="#000000" stroke="#000000" stroke-width="1" x1="89" x2="89" y1="313" y2="318"/>
<line fill="#000000" stroke="#000000" stroke-width="1" x1="89" x2="89" y1="323" y2="325"/>
<rect fill="#ffffff" height="262" stroke="#ffffff" stroke-width="1" width="20" x="79" y="63"/>
<rect fill="none" height="262" stroke="#000000" stroke-width="1" width="20" x="79" y="63"/>
<rect fill="#ffffff" height="50" stroke="#ffffff" stroke-width="1" width="150" x="14" y="14"/>
<rect fill="none" height="50" stroke="#000000" stroke-width="1" width="150" x="14" y="14"/>
<text font-family="Lucida Grande" font-size="13" x="74" y="28">
:TDE</text>
<line fill="#000000" stroke="#000000" stroke-width="1" x1="518" x2="518" y1="63" y2="68"/>
<line fill="#000000" stroke="#000000" stroke-width="1" x1="518" x2="518" y1="73" y2="78"/>
<line fill="#000000" stroke="#000000" stroke-width="1" x1="518" x2="518" y1="83" y2="88"/>
<line fill="#000000" stroke="#000000" stroke-width="1" x1="518" x2="518" y1="93" y2="98"/>
<line fill="#000000" stroke="#000000" stroke-width="1" x1="518" x2="518" y1="103" y2="108"/>
<line fill="#000000" stroke="#000000" stroke-width="1" x1="518" x2="518" y1="113" y2="118"/>
<line fill="#000000" stroke="#000000" stroke-width="1" x1="518" x2="518" y1="123" y2="128"/>
<line fill="#000000" stroke="#000000" stroke-width="1" x1="518" x2="518" y1="133" y2="138"/>
<line fill="#000000" stroke="#000000" stroke-width="1" x1="518" x2="518" y1="143" y2="148"/>
<line fill="#000000" stroke="#000000" stroke-width="1" x1="518" x2="518" y1="153" y2="158"/>
<line fill="#000000" stroke="#000000" stroke-width="1" x1="518" x2="518" y1="163" y2="168"/>
<line fill="#000000" stroke="#000000" stroke-width="1" x1="518" x2="518" y1="173" y2="178"/>
<line fill="#000000" stroke="#000000" stroke-width="1" x1="518" x2="518" y1="183" y2="188"/>
<line fill="#000000" stroke="#000000" stroke-width="1" x1="518" x2="518" y1="193" y2="198"/>
<line fill="#000000" stroke="#000000" stroke-width="1" x1="518" x2="518" y1="203" y2="208"/>
<line fill="#000000" stroke="#000000" stroke-width="1" x1="518" x2="518" y1="213" y2="218"/>
<line fill="#000000" stroke="#000000" stroke-width="1" x1="518" x2="518" y1="223" y2="228"/>
<line fill="#000000" stroke="#000000" stroke-width="1" x1="518" x2="518" y1="233" y2="238"/>
<line fill="#000000" stroke="#000000" stroke-width="1" x1="518" x2="518" y1="243" y2="248"/>
<line fill="#000000" stroke="#000000" stroke-width="1" x1="518" x2="518" y1="253" y2="258"/>
<line fill="#000000" stroke="#000000" stroke-width="1" x1="518" x2="518" y1="263" y2="268"/>
<line fill="#000000" stroke="#000000" stroke-width="1" x1="518" x2="518" y1="273" y2="278"/>
<line fill="#000000" stroke="#000000" stroke-width="1" x1="518" x2="518" y1="283" y2="288"/>
<line fill="#000000" stroke="#000000" stroke-width="1" x1="518" x2="518" y1="293" y2="298"/>
<line fill="#000000" stroke="#000000" stroke-width="1" x1="518" x2="518" y1="303" y2="308"/>
<line fill="#000000" stroke="#000000" stroke-width="1" x1="518" x2="518" y1="313" y2="318"/>
<line fill="#000000" stroke="#000000" stroke-width="1" x1="518" x2="518" y1="323" y2="325"/>
<rect fill="#ffffff" height="262" stroke="#ffffff" stroke-width="1" width="20" x="508" y="63"/>
<rect fill="none" height="262" stroke="#000000" stroke-width="1" width="20" x="508" y="63"/>
<rect fill="#ffffff" height="50" stroke="#ffffff" stroke-width="1" width="152" x="442" y="14"/>
<rect fill="none" height="50" stroke="#000000" stroke-width="1" width="152" x="442" y="14"/>
<text font-family="Lucida Grande" font-size="13" x="491" y="28">
:Sistema</text>
<polyline fill="none" points="99,102 508,102" stroke="#000000" stroke-width="1"/>
<line fill="#000000" stroke="#000000" stroke-width="1" x1="496" x2="508" y1="109" y2="102"/>
<line fill="#000000" stroke="#000000" stroke-width="1" x1="496" x2="508" y1="95" y2="102"/>
<text font-family="Lucida Grande" font-size="13" x="163" y="97">
1:Richiesta area pacchetti viaggio non pagati</text>
<polyline fill="none" points="99,158 508,158" stroke="#000000" stroke-width="1"/>
<line fill="#000000" stroke="#000000" stroke-width="1" x1="496" x2="508" y1="165" y2="158"/>
<line fill="#000000" stroke="#000000" stroke-width="1" x1="496" x2="508" y1="151" y2="158"/>
<text font-family="Lucida Grande" font-size="13" x="176" y="153">
2:Selezione pacchetto di viaggio desiderato</text>
<polyline fill="none" points="99,214 508,214" stroke="#000000" stroke-width="1"/>
<line fill="#000000" stroke="#000000" stroke-width="1" x1="496" x2="508" y1="221" y2="214"/>
<line fill="#000000" stroke="#000000" stroke-width="1" x1="496" x2="508" y1="207" y2="214"/>
<text font-family="Lucida Grande" font-size="13" x="169" y="208">
3:Modifica campo "pagato" impostando il valore "si"</text>
<line fill="#000000" stroke="#000000" stroke-width="1" x1="528" x2="546" y1="254" y2="254"/>
<line fill="#000000" stroke="#000000" stroke-width="1" x1="546" x2="563" y1="254" y2="255"/>
<line fill="#000000" stroke="#000000" stroke-width="1" x1="563" x2="577" y1="255" y2="256"/>
<line fill="#000000" stroke="#000000" stroke-width="1" x1="577" x2="588" y1="256" y2="258"/>
<line fill="#000000" stroke="#000000" stroke-width="1" x1="588" x2="596" y1="258" y2="260"/>
<line fill="#000000" stroke="#000000" stroke-width="1" x1="596" x2="601" y1="260" y2="262"/>
<line fill="#000000" stroke="#000000" stroke-width="1" x1="601" x2="602" y1="262" y2="263"/>
<line fill="#000000" stroke="#000000" stroke-width="1" x1="602" x2="601" y1="263" y2="265"/>
<line fill="#000000" stroke="#000000" stroke-width="1" x1="601" x2="596" y1="265" y2="267"/>
<line fill="#000000" stroke="#000000" stroke-width="1" x1="596" x2="588" y1="267" y2="269"/>
<line fill="#000000" stroke="#000000" stroke-width="1" x1="588" x2="569" y1="269" y2="270"/>
<line fill="#000000" stroke="#000000" stroke-width="1" x1="569" x2="553" y1="270" y2="272"/>
<line fill="#000000" stroke="#000000" stroke-width="1" x1="553" x2="539" y1="272" y2="273"/>
<line fill="#000000" stroke="#000000" stroke-width="1" x1="539" x2="528" y1="273" y2="274"/>
<line fill="#000000" stroke="#000000" stroke-width="1" x1="540" x2="528" y1="267" y2="274"/>
<line fill="#000000" stroke="#000000" stroke-width="1" x1="540" x2="528" y1="281" y2="274"/>
<text font-family="Lucida Grande" font-size="13" x="630" y="269">
4:Modifica pacchetto</text>
</svg>
