<?xml version="1.0" encoding="utf-8" ?>
<!DOCTYPE svg PUBLIC "-//W3C//DTD SVG 1.1//EN" "http://www.w3.org/Graphics/SVG/1.1/DTD/svg11.dtd">
<svg height="392" version="1.1" width="755" xmlns="http://www.w3.org/2000/svg">
<line fill="#000000" stroke="#000000" stroke-width="1" x1="89" x2="89" y1="63" y2="68"/>
<line fill="#000000" stroke="#000000" stroke-width="1" x1="89" x2="89" y1="73" y2="78"/>
<line fill="#000000" stroke="#000000" stroke-width="1" x1="89" x2="89" y1="83" y2="88"/>
<line fill="#000000" stroke="#000000" stroke-width="1" x1="89" x2="89" y1="93" y2="98"/>
<line fill="#000000" stroke="#000000" stroke-width="1" x1="89" x2="89" y1="103" y2="108"/>
<line fill="#000000" stroke="#000000" stroke-width="1" x1="89" x2="89" y1="113" y2="118"/>
<line fill="#000000" stroke="#000000" stroke-width="1" x1="89" x2="89" y1="123" y2="128"/>
<line fill="#000000" stroke="#000000" stroke-width="1" x1="89" x2="89" y1="133" y2="138"/>
<line fill="#000000" stroke="#000000" stroke-width="1" x1="89" x2="89" y1="143" y2="148"/>
<line fill="#000000" stroke="#000000" stroke-width="1" x1="89" x2="89" y1="153" y2="158"/>
<line fill="#000000" stroke="#000000" stroke-width="1" x1="89" x2="89" y1="163" y2="168"/>
<line fill="#000000" stroke="#000000" stroke-width="1" x1="89" x2="89" y1="173" y2="178"/>
<line fill="#000000" stroke="#000000" stroke-width="1" x1="89" x2="89" y1="183" y2="188"/>
<line fill="#000000" stroke="#000000" stroke-width="1" x1="89" x2="89" y1="193" y2="198"/>
<line fill="#000000" stroke="#000000" stroke-width="1" x1="89" x2="89" y1="203" y2="208"/>
<line fill="#000000" stroke="#000000" stroke-width="1" x1="89" x2="89" y1="213" y2="218"/>
<line fill="#000000" stroke="#000000" stroke-width="1" x1="89" x2="89" y1="223" y2="228"/>
<line fill="#000000" stroke="#000000" stroke-width="1" x1="89" x2="89" y1="233" y2="238"/>
<line fill="#000000" stroke="#000000" stroke-width="1" x1="89" x2="89" y1="243" y2="248"/>
<line fill="#000000" stroke="#000000" stroke-width="1" x1="89" x2="89" y1="253" y2="258"/>
<line fill="#000000" stroke="#000000" stroke-width="1" x1="89" x2="89" y1="263" y2="268"/>
<line fill="#000000" stroke="#000000" stroke-width="1" x1="89" x2="89" y1="273" y2="278"/>
<line fill="#000000" stroke="#000000" stroke-width="1" x1="89" x2="89" y1="283" y2="288"/>
<line fill="#000000" stroke="#000000" stroke-width="1" x1="89" x2="89" y1="293" y2="298"/>
<line fill="#000000" stroke="#000000" stroke-width="1" x1="89" x2="89" y1="303" y2="308"/>
<line fill="#000000" stroke="#000000" stroke-width="1" x1="89" x2="89" y1="313" y2="318"/>
<line fill="#000000" stroke="#000000" stroke-width="1" x1="89" x2="89" y1="323" y2="328"/>
<line fill="#000000" stroke="#000000" stroke-width="1" x1="89" x2="89" y1="333" y2="338"/>
<line fill="#000000" stroke="#000000" stroke-width="1" x1="89" x2="89" y1="343" y2="348"/>
<line fill="#000000" stroke="#000000" stroke-width="1" x1="89" x2="89" y1="353" y2="358"/>
<line fill="#000000" stroke="#000000" stroke-width="1" x1="89" x2="89" y1="363" y2="368"/>
<line fill="#000000" stroke="#000000" stroke-width="1" x1="89" x2="89" y1="373" y2="377"/>
<rect fill="#ffffff" height="314" stroke="#ffffff" stroke-width="1" width="20" x="79" y="63"/>
<rect fill="none" height="314" stroke="#000000" stroke-width="1" width="20" x="79" y="63"/>
<rect fill="#ffffff" height="50" stroke="#ffffff" stroke-width="1" width="150" x="14" y="14"/>
<rect fill="none" height="50" stroke="#000000" stroke-width="1" width="150" x="14" y="14"/>
<text font-family="Lucida Grande" font-size="13" x="74" y="28">
:TDE</text>
<line fill="#000000" stroke="#000000" stroke-width="1" x1="540" x2="540" y1="63" y2="68"/>
<line fill="#000000" stroke="#000000" stroke-width="1" x1="540" x2="540" y1="73" y2="78"/>
<line fill="#000000" stroke="#000000" stroke-width="1" x1="540" x2="540" y1="83" y2="88"/>
<line fill="#000000" stroke="#000000" stroke-width="1" x1="540" x2="540" y1="93" y2="98"/>
<line fill="#000000" stroke="#000000" stroke-width="1" x1="540" x2="540" y1="103" y2="108"/>
<line fill="#000000" stroke="#000000" stroke-width="1" x1="540" x2="540" y1="113" y2="118"/>
<line fill="#000000" stroke="#000000" stroke-width="1" x1="540" x2="540" y1="123" y2="128"/>
<line fill="#000000" stroke="#000000" stroke-width="1" x1="540" x2="540" y1="133" y2="138"/>
<line fill="#000000" stroke="#000000" stroke-width="1" x1="540" x2="540" y1="143" y2="148"/>
<line fill="#000000" stroke="#000000" stroke-width="1" x1="540" x2="540" y1="153" y2="158"/>
<line fill="#000000" stroke="#000000" stroke-width="1" x1="540" x2="540" y1="163" y2="168"/>
<line fill="#000000" stroke="#000000" stroke-width="1" x1="540" x2="540" y1="173" y2="178"/>
<line fill="#000000" stroke="#000000" stroke-width="1" x1="540" x2="540" y1="183" y2="188"/>
<line fill="#000000" stroke="#000000" stroke-width="1" x1="540" x2="540" y1="193" y2="198"/>
<line fill="#000000" stroke="#000000" stroke-width="1" x1="540" x2="540" y1="203" y2="208"/>
<line fill="#000000" stroke="#000000" stroke-width="1" x1="540" x2="540" y1="213" y2="218"/>
<line fill="#000000" stroke="#000000" stroke-width="1" x1="540" x2="540" y1="223" y2="228"/>
<line fill="#000000" stroke="#000000" stroke-width="1" x1="540" x2="540" y1="233" y2="238"/>
<line fill="#000000" stroke="#000000" stroke-width="1" x1="540" x2="540" y1="243" y2="248"/>
<line fill="#000000" stroke="#000000" stroke-width="1" x1="540" x2="540" y1="253" y2="258"/>
<line fill="#000000" stroke="#000000" stroke-width="1" x1="540" x2="540" y1="263" y2="268"/>
<line fill="#000000" stroke="#000000" stroke-width="1" x1="540" x2="540" y1="273" y2="278"/>
<line fill="#000000" stroke="#000000" stroke-width="1" x1="540" x2="540" y1="283" y2="288"/>
<line fill="#000000" stroke="#000000" stroke-width="1" x1="540" x2="540" y1="293" y2="298"/>
<line fill="#000000" stroke="#000000" stroke-width="1" x1="540" x2="540" y1="303" y2="308"/>
<line fill="#000000" stroke="#000000" stroke-width="1" x1="540" x2="540" y1="313" y2="318"/>
<line fill="#000000" stroke="#000000" stroke-width="1" x1="540" x2="540" y1="323" y2="328"/>
<line fill="#000000" stroke="#000000" stroke-width="1" x1="540" x2="540" y1="333" y2="338"/>
<line fill="#000000" stroke="#000000" stroke-width="1" x1="540" x2="540" y1="343" y2="348"/>
<line fill="#000000" stroke="#000000" stroke-width="1" x1="540" x2="540" y1="353" y2="358"/>
<line fill="#000000" stroke="#000000" stroke-width="1" x1="540" x2="540" y1="363" y2="368"/>
<line fill="#000000" stroke="#000000" stroke-width="1" x1="540" x2="540" y1="373" y2="377"/>
<rect fill="#ffffff" height="314" stroke="#ffffff" stroke-width="1" width="20" x="530" y="63"/>
<rect fill="none" height="314" stroke="#000000" stroke-width="1" width="20" x="530" y="63"/>
<rect fill="#ffffff" height="50" stroke="#ffffff" stroke-width="1" width="152" x="464" y="14"/>
<rect fill="none" height="50" stroke="#000000" stroke-width="1" width="152" x="464" y="14"/>
<text font-family="Lucida Grande" font-size="13" x="513" y="28">
:Sistema</text>
<polyline fill="none" points="99,122 530,122" stroke="#000000" stroke-width="1"/>
<line fill="#000000" stroke="#000000" stroke-width="1" x1="518" x2="530" y1="129" y2="122"/>
<line fill="#000000" stroke="#000000" stroke-width="1" x1="518" x2="530" y1="115" y2="122"/>
<text font-family="Lucida Grande" font-size="13" x="199" y="117">
1:Richiesta area creazione pacchetti viaggio</text>
<polyline fill="none" points="99,178 530,178" stroke="#000000" stroke-width="1"/>
<line fill="#000000" stroke="#000000" stroke-width="1" x1="518" x2="530" y1="185" y2="178"/>
<line fill="#000000" stroke="#000000" stroke-width="1" x1="518" x2="530" y1="171" y2="178"/>
<text font-family="Lucida Grande" font-size="13" x="213" y="173">
2:Inserimento campi del pacchetto</text>
<polyline fill="none" points="99,242 530,242" stroke="#000000" stroke-width="1"/>
<line fill="#000000" stroke="#000000" stroke-width="1" x1="518" x2="530" y1="249" y2="242"/>
<line fill="#000000" stroke="#000000" stroke-width="1" x1="518" x2="530" y1="235" y2="242"/>
<text font-family="Lucida Grande" font-size="13" x="212" y="237">
3:Aggiunta insieme di prodotti base</text>
<line fill="#000000" stroke="#000000" stroke-width="1" x1="550" x2="568" y1="290" y2="290"/>
<line fill="#000000" stroke="#000000" stroke-width="1" x1="568" x2="585" y1="290" y2="291"/>
<line fill="#000000" stroke="#000000" stroke-width="1" x1="585" x2="599" y1="291" y2="292"/>
<line fill="#000000" stroke="#000000" stroke-width="1" x1="599" x2="610" y1="292" y2="294"/>
<line fill="#000000" stroke="#000000" stroke-width="1" x1="610" x2="618" y1="294" y2="296"/>
<line fill="#000000" stroke="#000000" stroke-width="1" x1="618" x2="623" y1="296" y2="298"/>
<line fill="#000000" stroke="#000000" stroke-width="1" x1="623" x2="624" y1="298" y2="299"/>
<line fill="#000000" stroke="#000000" stroke-width="1" x1="624" x2="623" y1="299" y2="301"/>
<line fill="#000000" stroke="#000000" stroke-width="1" x1="623" x2="618" y1="301" y2="303"/>
<line fill="#000000" stroke="#000000" stroke-width="1" x1="618" x2="610" y1="303" y2="305"/>
<line fill="#000000" stroke="#000000" stroke-width="1" x1="610" x2="591" y1="305" y2="306"/>
<line fill="#000000" stroke="#000000" stroke-width="1" x1="591" x2="575" y1="306" y2="308"/>
<line fill="#000000" stroke="#000000" stroke-width="1" x1="575" x2="561" y1="308" y2="309"/>
<line fill="#000000" stroke="#000000" stroke-width="1" x1="561" x2="550" y1="309" y2="310"/>
<line fill="#000000" stroke="#000000" stroke-width="1" x1="562" x2="550" y1="303" y2="310"/>
<line fill="#000000" stroke="#000000" stroke-width="1" x1="562" x2="550" y1="317" y2="310"/>
<text font-family="Lucida Grande" font-size="13" x="652" y="305">
4:Creazione pacchetto</text>
</svg>
