<?xml version="1.0" encoding="utf-8" ?>
<!DOCTYPE svg PUBLIC "-//W3C//DTD SVG 1.1//EN" "http://www.w3.org/Graphics/SVG/1.1/DTD/svg11.dtd">
<svg height="346" version="1.1" width="780" xmlns="http://www.w3.org/2000/svg">
<line fill="#000000" stroke="#000000" stroke-width="1" x1="89" x2="89" y1="63" y2="68"/>
<line fill="#000000" stroke="#000000" stroke-width="1" x1="89" x2="89" y1="73" y2="78"/>
<line fill="#000000" stroke="#000000" stroke-width="1" x1="89" x2="89" y1="83" y2="88"/>
<line fill="#000000" stroke="#000000" stroke-width="1" x1="89" x2="89" y1="93" y2="98"/>
<line fill="#000000" stroke="#000000" stroke-width="1" x1="89" x2="89" y1="103" y2="108"/>
<line fill="#000000" stroke="#000000" stroke-width="1" x1="89" x2="89" y1="113" y2="118"/>
<line fill="#000000" stroke="#000000" stroke-width="1" x1="89" x2="89" y1="123" y2="128"/>
<line fill="#000000" stroke="#000000" stroke-width="1" x1="89" x2="89" y1="133" y2="138"/>
<line fill="#000000" stroke="#000000" stroke-width="1" x1="89" x2="89" y1="143" y2="148"/>
<line fill="#000000" stroke="#000000" stroke-width="1" x1="89" x2="89" y1="153" y2="158"/>
<line fill="#000000" stroke="#000000" stroke-width="1" x1="89" x2="89" y1="163" y2="168"/>
<line fill="#000000" stroke="#000000" stroke-width="1" x1="89" x2="89" y1="173" y2="178"/>
<line fill="#000000" stroke="#000000" stroke-width="1" x1="89" x2="89" y1="183" y2="188"/>
<line fill="#000000" stroke="#000000" stroke-width="1" x1="89" x2="89" y1="193" y2="198"/>
<line fill="#000000" stroke="#000000" stroke-width="1" x1="89" x2="89" y1="203" y2="208"/>
<line fill="#000000" stroke="#000000" stroke-width="1" x1="89" x2="89" y1="213" y2="218"/>
<line fill="#000000" stroke="#000000" stroke-width="1" x1="89" x2="89" y1="223" y2="228"/>
<line fill="#000000" stroke="#000000" stroke-width="1" x1="89" x2="89" y1="233" y2="238"/>
<line fill="#000000" stroke="#000000" stroke-width="1" x1="89" x2="89" y1="243" y2="248"/>
<line fill="#000000" stroke="#000000" stroke-width="1" x1="89" x2="89" y1="253" y2="258"/>
<line fill="#000000" stroke="#000000" stroke-width="1" x1="89" x2="89" y1="263" y2="268"/>
<line fill="#000000" stroke="#000000" stroke-width="1" x1="89" x2="89" y1="273" y2="278"/>
<line fill="#000000" stroke="#000000" stroke-width="1" x1="89" x2="89" y1="283" y2="288"/>
<line fill="#000000" stroke="#000000" stroke-width="1" x1="89" x2="89" y1="293" y2="298"/>
<line fill="#000000" stroke="#000000" stroke-width="1" x1="89" x2="89" y1="303" y2="308"/>
<line fill="#000000" stroke="#000000" stroke-width="1" x1="89" x2="89" y1="313" y2="318"/>
<line fill="#000000" stroke="#000000" stroke-width="1" x1="89" x2="89" y1="323" y2="328"/>
<rect fill="#ffffff" height="268" stroke="#ffffff" stroke-width="1" width="20" x="79" y="63"/>
<rect fill="none" height="268" stroke="#000000" stroke-width="1" width="20" x="79" y="63"/>
<rect fill="#ffffff" height="50" stroke="#ffffff" stroke-width="1" width="150" x="14" y="14"/>
<rect fill="none" height="50" stroke="#000000" stroke-width="1" width="150" x="14" y="14"/>
<text font-family="Lucida Grande" font-size="13" x="74" y="28">
:TDE</text>
<line fill="#000000" stroke="#000000" stroke-width="1" x1="565" x2="565" y1="63" y2="68"/>
<line fill="#000000" stroke="#000000" stroke-width="1" x1="565" x2="565" y1="73" y2="78"/>
<line fill="#000000" stroke="#000000" stroke-width="1" x1="565" x2="565" y1="83" y2="88"/>
<line fill="#000000" stroke="#000000" stroke-width="1" x1="565" x2="565" y1="93" y2="98"/>
<line fill="#000000" stroke="#000000" stroke-width="1" x1="565" x2="565" y1="103" y2="108"/>
<line fill="#000000" stroke="#000000" stroke-width="1" x1="565" x2="565" y1="113" y2="118"/>
<line fill="#000000" stroke="#000000" stroke-width="1" x1="565" x2="565" y1="123" y2="128"/>
<line fill="#000000" stroke="#000000" stroke-width="1" x1="565" x2="565" y1="133" y2="138"/>
<line fill="#000000" stroke="#000000" stroke-width="1" x1="565" x2="565" y1="143" y2="148"/>
<line fill="#000000" stroke="#000000" stroke-width="1" x1="565" x2="565" y1="153" y2="158"/>
<line fill="#000000" stroke="#000000" stroke-width="1" x1="565" x2="565" y1="163" y2="168"/>
<line fill="#000000" stroke="#000000" stroke-width="1" x1="565" x2="565" y1="173" y2="178"/>
<line fill="#000000" stroke="#000000" stroke-width="1" x1="565" x2="565" y1="183" y2="188"/>
<line fill="#000000" stroke="#000000" stroke-width="1" x1="565" x2="565" y1="193" y2="198"/>
<line fill="#000000" stroke="#000000" stroke-width="1" x1="565" x2="565" y1="203" y2="208"/>
<line fill="#000000" stroke="#000000" stroke-width="1" x1="565" x2="565" y1="213" y2="218"/>
<line fill="#000000" stroke="#000000" stroke-width="1" x1="565" x2="565" y1="223" y2="228"/>
<line fill="#000000" stroke="#000000" stroke-width="1" x1="565" x2="565" y1="233" y2="238"/>
<line fill="#000000" stroke="#000000" stroke-width="1" x1="565" x2="565" y1="243" y2="248"/>
<line fill="#000000" stroke="#000000" stroke-width="1" x1="565" x2="565" y1="253" y2="258"/>
<line fill="#000000" stroke="#000000" stroke-width="1" x1="565" x2="565" y1="263" y2="268"/>
<line fill="#000000" stroke="#000000" stroke-width="1" x1="565" x2="565" y1="273" y2="278"/>
<line fill="#000000" stroke="#000000" stroke-width="1" x1="565" x2="565" y1="283" y2="288"/>
<line fill="#000000" stroke="#000000" stroke-width="1" x1="565" x2="565" y1="293" y2="298"/>
<line fill="#000000" stroke="#000000" stroke-width="1" x1="565" x2="565" y1="303" y2="308"/>
<line fill="#000000" stroke="#000000" stroke-width="1" x1="565" x2="565" y1="313" y2="318"/>
<line fill="#000000" stroke="#000000" stroke-width="1" x1="565" x2="565" y1="323" y2="328"/>
<rect fill="#ffffff" height="268" stroke="#ffffff" stroke-width="1" width="20" x="555" y="63"/>
<rect fill="none" height="268" stroke="#000000" stroke-width="1" width="20" x="555" y="63"/>
<rect fill="#ffffff" height="50" stroke="#ffffff" stroke-width="1" width="152" x="489" y="14"/>
<rect fill="none" height="50" stroke="#000000" stroke-width="1" width="152" x="489" y="14"/>
<text font-family="Lucida Grande" font-size="13" x="538" y="28">
:Sistema</text>
<polyline fill="none" points="99,108 555,108" stroke="#000000" stroke-width="1"/>
<line fill="#000000" stroke="#000000" stroke-width="1" x1="543" x2="555" y1="115" y2="108"/>
<line fill="#000000" stroke="#000000" stroke-width="1" x1="543" x2="555" y1="101" y2="108"/>
<text font-family="Lucida Grande" font-size="13" x="225" y="103">
1:Richiesta area modifica pacchetto</text>
<polyline fill="none" points="99,164 555,164" stroke="#000000" stroke-width="1"/>
<line fill="#000000" stroke="#000000" stroke-width="1" x1="543" x2="555" y1="171" y2="164"/>
<line fill="#000000" stroke="#000000" stroke-width="1" x1="543" x2="555" y1="157" y2="164"/>
<text font-family="Lucida Grande" font-size="13" x="212" y="159">
2:Selezione pacchetto viaggio desiderato</text>
<polyline fill="none" points="99,220 555,220" stroke="#000000" stroke-width="1"/>
<line fill="#000000" stroke="#000000" stroke-width="1" x1="543" x2="555" y1="227" y2="220"/>
<line fill="#000000" stroke="#000000" stroke-width="1" x1="543" x2="555" y1="213" y2="220"/>
<text font-family="Lucida Grande" font-size="13" x="219" y="215">
3:Eliminazione pacchetto viaggio</text>
<line fill="#000000" stroke="#000000" stroke-width="1" x1="575" x2="593" y1="244" y2="244"/>
<line fill="#000000" stroke="#000000" stroke-width="1" x1="593" x2="610" y1="244" y2="245"/>
<line fill="#000000" stroke="#000000" stroke-width="1" x1="610" x2="624" y1="245" y2="246"/>
<line fill="#000000" stroke="#000000" stroke-width="1" x1="624" x2="635" y1="246" y2="248"/>
<line fill="#000000" stroke="#000000" stroke-width="1" x1="635" x2="643" y1="248" y2="250"/>
<line fill="#000000" stroke="#000000" stroke-width="1" x1="643" x2="648" y1="250" y2="252"/>
<line fill="#000000" stroke="#000000" stroke-width="1" x1="648" x2="649" y1="252" y2="253"/>
<line fill="#000000" stroke="#000000" stroke-width="1" x1="649" x2="648" y1="253" y2="255"/>
<line fill="#000000" stroke="#000000" stroke-width="1" x1="648" x2="643" y1="255" y2="257"/>
<line fill="#000000" stroke="#000000" stroke-width="1" x1="643" x2="635" y1="257" y2="259"/>
<line fill="#000000" stroke="#000000" stroke-width="1" x1="635" x2="616" y1="259" y2="260"/>
<line fill="#000000" stroke="#000000" stroke-width="1" x1="616" x2="600" y1="260" y2="262"/>
<line fill="#000000" stroke="#000000" stroke-width="1" x1="600" x2="586" y1="262" y2="263"/>
<line fill="#000000" stroke="#000000" stroke-width="1" x1="586" x2="575" y1="263" y2="264"/>
<line fill="#000000" stroke="#000000" stroke-width="1" x1="587" x2="575" y1="257" y2="264"/>
<line fill="#000000" stroke="#000000" stroke-width="1" x1="587" x2="575" y1="271" y2="264"/>
<text font-family="Lucida Grande" font-size="13" x="677" y="259">
4:Modifica del pacchetto</text>
</svg>
