<?xml version="1.0" encoding="utf-8" ?>
<!DOCTYPE svg PUBLIC "-//W3C//DTD SVG 1.1//EN" "http://www.w3.org/Graphics/SVG/1.1/DTD/svg11.dtd">
<svg height="300" version="1.1" width="769" xmlns="http://www.w3.org/2000/svg">
<line fill="#000000" stroke="#000000" stroke-width="1" x1="89" x2="89" y1="63" y2="68"/>
<line fill="#000000" stroke="#000000" stroke-width="1" x1="89" x2="89" y1="73" y2="78"/>
<line fill="#000000" stroke="#000000" stroke-width="1" x1="89" x2="89" y1="83" y2="88"/>
<line fill="#000000" stroke="#000000" stroke-width="1" x1="89" x2="89" y1="93" y2="98"/>
<line fill="#000000" stroke="#000000" stroke-width="1" x1="89" x2="89" y1="103" y2="108"/>
<line fill="#000000" stroke="#000000" stroke-width="1" x1="89" x2="89" y1="113" y2="118"/>
<line fill="#000000" stroke="#000000" stroke-width="1" x1="89" x2="89" y1="123" y2="128"/>
<line fill="#000000" stroke="#000000" stroke-width="1" x1="89" x2="89" y1="133" y2="138"/>
<line fill="#000000" stroke="#000000" stroke-width="1" x1="89" x2="89" y1="143" y2="148"/>
<line fill="#000000" stroke="#000000" stroke-width="1" x1="89" x2="89" y1="153" y2="158"/>
<line fill="#000000" stroke="#000000" stroke-width="1" x1="89" x2="89" y1="163" y2="168"/>
<line fill="#000000" stroke="#000000" stroke-width="1" x1="89" x2="89" y1="173" y2="178"/>
<line fill="#000000" stroke="#000000" stroke-width="1" x1="89" x2="89" y1="183" y2="188"/>
<line fill="#000000" stroke="#000000" stroke-width="1" x1="89" x2="89" y1="193" y2="198"/>
<line fill="#000000" stroke="#000000" stroke-width="1" x1="89" x2="89" y1="203" y2="208"/>
<line fill="#000000" stroke="#000000" stroke-width="1" x1="89" x2="89" y1="213" y2="218"/>
<line fill="#000000" stroke="#000000" stroke-width="1" x1="89" x2="89" y1="223" y2="228"/>
<line fill="#000000" stroke="#000000" stroke-width="1" x1="89" x2="89" y1="233" y2="238"/>
<line fill="#000000" stroke="#000000" stroke-width="1" x1="89" x2="89" y1="243" y2="248"/>
<line fill="#000000" stroke="#000000" stroke-width="1" x1="89" x2="89" y1="253" y2="258"/>
<line fill="#000000" stroke="#000000" stroke-width="1" x1="89" x2="89" y1="263" y2="268"/>
<line fill="#000000" stroke="#000000" stroke-width="1" x1="89" x2="89" y1="273" y2="278"/>
<line fill="#000000" stroke="#000000" stroke-width="1" x1="89" x2="89" y1="283" y2="285"/>
<rect fill="#ffffff" height="222" stroke="#ffffff" stroke-width="1" width="20" x="79" y="63"/>
<rect fill="none" height="222" stroke="#000000" stroke-width="1" width="20" x="79" y="63"/>
<rect fill="#ffffff" height="50" stroke="#ffffff" stroke-width="1" width="150" x="14" y="14"/>
<rect fill="none" height="50" stroke="#000000" stroke-width="1" width="150" x="14" y="14"/>
<text font-family="Lucida Grande" font-size="13" x="73" y="28">
:TDC</text>
<line fill="#000000" stroke="#000000" stroke-width="1" x1="554" x2="554" y1="63" y2="68"/>
<line fill="#000000" stroke="#000000" stroke-width="1" x1="554" x2="554" y1="73" y2="78"/>
<line fill="#000000" stroke="#000000" stroke-width="1" x1="554" x2="554" y1="83" y2="88"/>
<line fill="#000000" stroke="#000000" stroke-width="1" x1="554" x2="554" y1="93" y2="98"/>
<line fill="#000000" stroke="#000000" stroke-width="1" x1="554" x2="554" y1="103" y2="108"/>
<line fill="#000000" stroke="#000000" stroke-width="1" x1="554" x2="554" y1="113" y2="118"/>
<line fill="#000000" stroke="#000000" stroke-width="1" x1="554" x2="554" y1="123" y2="128"/>
<line fill="#000000" stroke="#000000" stroke-width="1" x1="554" x2="554" y1="133" y2="138"/>
<line fill="#000000" stroke="#000000" stroke-width="1" x1="554" x2="554" y1="143" y2="148"/>
<line fill="#000000" stroke="#000000" stroke-width="1" x1="554" x2="554" y1="153" y2="158"/>
<line fill="#000000" stroke="#000000" stroke-width="1" x1="554" x2="554" y1="163" y2="168"/>
<line fill="#000000" stroke="#000000" stroke-width="1" x1="554" x2="554" y1="173" y2="178"/>
<line fill="#000000" stroke="#000000" stroke-width="1" x1="554" x2="554" y1="183" y2="188"/>
<line fill="#000000" stroke="#000000" stroke-width="1" x1="554" x2="554" y1="193" y2="198"/>
<line fill="#000000" stroke="#000000" stroke-width="1" x1="554" x2="554" y1="203" y2="208"/>
<line fill="#000000" stroke="#000000" stroke-width="1" x1="554" x2="554" y1="213" y2="218"/>
<line fill="#000000" stroke="#000000" stroke-width="1" x1="554" x2="554" y1="223" y2="228"/>
<line fill="#000000" stroke="#000000" stroke-width="1" x1="554" x2="554" y1="233" y2="238"/>
<line fill="#000000" stroke="#000000" stroke-width="1" x1="554" x2="554" y1="243" y2="248"/>
<line fill="#000000" stroke="#000000" stroke-width="1" x1="554" x2="554" y1="253" y2="258"/>
<line fill="#000000" stroke="#000000" stroke-width="1" x1="554" x2="554" y1="263" y2="268"/>
<line fill="#000000" stroke="#000000" stroke-width="1" x1="554" x2="554" y1="273" y2="278"/>
<line fill="#000000" stroke="#000000" stroke-width="1" x1="554" x2="554" y1="283" y2="285"/>
<rect fill="#ffffff" height="222" stroke="#ffffff" stroke-width="1" width="20" x="544" y="63"/>
<rect fill="none" height="222" stroke="#000000" stroke-width="1" width="20" x="544" y="63"/>
<rect fill="#ffffff" height="50" stroke="#ffffff" stroke-width="1" width="152" x="478" y="14"/>
<rect fill="none" height="50" stroke="#000000" stroke-width="1" width="152" x="478" y="14"/>
<text font-family="Lucida Grande" font-size="13" x="527" y="28">
:Sistema</text>
<polyline fill="none" points="99,118 544,118" stroke="#000000" stroke-width="1"/>
<line fill="#000000" stroke="#000000" stroke-width="1" x1="532" x2="544" y1="125" y2="118"/>
<line fill="#000000" stroke="#000000" stroke-width="1" x1="532" x2="544" y1="111" y2="118"/>
<text font-family="Lucida Grande" font-size="13" x="196" y="113">
1:Inserimento parole chiave per la ricerca</text>
<line fill="#000000" stroke="#000000" stroke-width="1" x1="564" x2="582" y1="150" y2="150"/>
<line fill="#000000" stroke="#000000" stroke-width="1" x1="582" x2="599" y1="150" y2="151"/>
<line fill="#000000" stroke="#000000" stroke-width="1" x1="599" x2="613" y1="151" y2="152"/>
<line fill="#000000" stroke="#000000" stroke-width="1" x1="613" x2="624" y1="152" y2="154"/>
<line fill="#000000" stroke="#000000" stroke-width="1" x1="624" x2="632" y1="154" y2="156"/>
<line fill="#000000" stroke="#000000" stroke-width="1" x1="632" x2="637" y1="156" y2="158"/>
<line fill="#000000" stroke="#000000" stroke-width="1" x1="637" x2="638" y1="158" y2="159"/>
<line fill="#000000" stroke="#000000" stroke-width="1" x1="638" x2="637" y1="159" y2="161"/>
<line fill="#000000" stroke="#000000" stroke-width="1" x1="637" x2="632" y1="161" y2="163"/>
<line fill="#000000" stroke="#000000" stroke-width="1" x1="632" x2="624" y1="163" y2="165"/>
<line fill="#000000" stroke="#000000" stroke-width="1" x1="624" x2="605" y1="165" y2="166"/>
<line fill="#000000" stroke="#000000" stroke-width="1" x1="605" x2="589" y1="166" y2="168"/>
<line fill="#000000" stroke="#000000" stroke-width="1" x1="589" x2="575" y1="168" y2="169"/>
<line fill="#000000" stroke="#000000" stroke-width="1" x1="575" x2="564" y1="169" y2="170"/>
<line fill="#000000" stroke="#000000" stroke-width="1" x1="576" x2="564" y1="163" y2="170"/>
<line fill="#000000" stroke="#000000" stroke-width="1" x1="576" x2="564" y1="177" y2="170"/>
<text font-family="Lucida Grande" font-size="13" x="666" y="165">
2:Ricerca pacchetti che soddisfano la ricerca</text>
<line fill="#000000" stroke="#000000" stroke-width="1" x1="544" x2="539" y1="206" y2="206"/>
<line fill="#000000" stroke="#000000" stroke-width="1" x1="534" x2="529" y1="206" y2="206"/>
<line fill="#000000" stroke="#000000" stroke-width="1" x1="524" x2="519" y1="206" y2="206"/>
<line fill="#000000" stroke="#000000" stroke-width="1" x1="514" x2="509" y1="206" y2="206"/>
<line fill="#000000" stroke="#000000" stroke-width="1" x1="504" x2="499" y1="206" y2="206"/>
<line fill="#000000" stroke="#000000" stroke-width="1" x1="494" x2="489" y1="206" y2="206"/>
<line fill="#000000" stroke="#000000" stroke-width="1" x1="484" x2="479" y1="206" y2="206"/>
<line fill="#000000" stroke="#000000" stroke-width="1" x1="474" x2="469" y1="206" y2="206"/>
<line fill="#000000" stroke="#000000" stroke-width="1" x1="464" x2="459" y1="206" y2="206"/>
<line fill="#000000" stroke="#000000" stroke-width="1" x1="454" x2="449" y1="206" y2="206"/>
<line fill="#000000" stroke="#000000" stroke-width="1" x1="444" x2="439" y1="206" y2="206"/>
<line fill="#000000" stroke="#000000" stroke-width="1" x1="434" x2="429" y1="206" y2="206"/>
<line fill="#000000" stroke="#000000" stroke-width="1" x1="424" x2="419" y1="206" y2="206"/>
<line fill="#000000" stroke="#000000" stroke-width="1" x1="414" x2="409" y1="206" y2="206"/>
<line fill="#000000" stroke="#000000" stroke-width="1" x1="404" x2="399" y1="206" y2="206"/>
<line fill="#000000" stroke="#000000" stroke-width="1" x1="394" x2="389" y1="206" y2="206"/>
<line fill="#000000" stroke="#000000" stroke-width="1" x1="384" x2="379" y1="206" y2="206"/>
<line fill="#000000" stroke="#000000" stroke-width="1" x1="374" x2="369" y1="206" y2="206"/>
<line fill="#000000" stroke="#000000" stroke-width="1" x1="364" x2="359" y1="206" y2="206"/>
<line fill="#000000" stroke="#000000" stroke-width="1" x1="354" x2="349" y1="206" y2="206"/>
<line fill="#000000" stroke="#000000" stroke-width="1" x1="344" x2="339" y1="206" y2="206"/>
<line fill="#000000" stroke="#000000" stroke-width="1" x1="334" x2="329" y1="206" y2="206"/>
<line fill="#000000" stroke="#000000" stroke-width="1" x1="324" x2="319" y1="206" y2="206"/>
<line fill="#000000" stroke="#000000" stroke-width="1" x1="314" x2="309" y1="206" y2="206"/>
<line fill="#000000" stroke="#000000" stroke-width="1" x1="304" x2="299" y1="206" y2="206"/>
<line fill="#000000" stroke="#000000" stroke-width="1" x1="294" x2="289" y1="206" y2="206"/>
<line fill="#000000" stroke="#000000" stroke-width="1" x1="284" x2="279" y1="206" y2="206"/>
<line fill="#000000" stroke="#000000" stroke-width="1" x1="274" x2="269" y1="206" y2="206"/>
<line fill="#000000" stroke="#000000" stroke-width="1" x1="264" x2="259" y1="206" y2="206"/>
<line fill="#000000" stroke="#000000" stroke-width="1" x1="254" x2="249" y1="206" y2="206"/>
<line fill="#000000" stroke="#000000" stroke-width="1" x1="244" x2="239" y1="206" y2="206"/>
<line fill="#000000" stroke="#000000" stroke-width="1" x1="234" x2="229" y1="206" y2="206"/>
<line fill="#000000" stroke="#000000" stroke-width="1" x1="224" x2="219" y1="206" y2="206"/>
<line fill="#000000" stroke="#000000" stroke-width="1" x1="214" x2="209" y1="206" y2="206"/>
<line fill="#000000" stroke="#000000" stroke-width="1" x1="204" x2="199" y1="206" y2="206"/>
<line fill="#000000" stroke="#000000" stroke-width="1" x1="194" x2="189" y1="206" y2="206"/>
<line fill="#000000" stroke="#000000" stroke-width="1" x1="184" x2="179" y1="206" y2="206"/>
<line fill="#000000" stroke="#000000" stroke-width="1" x1="174" x2="169" y1="206" y2="206"/>
<line fill="#000000" stroke="#000000" stroke-width="1" x1="164" x2="159" y1="206" y2="206"/>
<line fill="#000000" stroke="#000000" stroke-width="1" x1="154" x2="149" y1="206" y2="206"/>
<line fill="#000000" stroke="#000000" stroke-width="1" x1="144" x2="139" y1="206" y2="206"/>
<line fill="#000000" stroke="#000000" stroke-width="1" x1="134" x2="129" y1="206" y2="206"/>
<line fill="#000000" stroke="#000000" stroke-width="1" x1="124" x2="119" y1="206" y2="206"/>
<line fill="#000000" stroke="#000000" stroke-width="1" x1="114" x2="109" y1="206" y2="206"/>
<line fill="#000000" stroke="#000000" stroke-width="1" x1="104" x2="99" y1="206" y2="206"/>
<line fill="#000000" stroke="#000000" stroke-width="1" x1="111" x2="99" y1="199" y2="206"/>
<line fill="#000000" stroke="#000000" stroke-width="1" x1="111" x2="99" y1="213" y2="206"/>
<text font-family="Lucida Grande" font-size="13" x="278" y="201">
3:Pacchetti trovati</text>
</svg>
