<?xml version="1.0" encoding="utf-8" ?>
<!DOCTYPE svg PUBLIC "-//W3C//DTD SVG 1.1//EN" "http://www.w3.org/Graphics/SVG/1.1/DTD/svg11.dtd">
<svg height="325" version="1.1" width="833" xmlns="http://www.w3.org/2000/svg">
<line fill="#000000" stroke="#000000" stroke-width="1" x1="89" x2="89" y1="63" y2="68"/>
<line fill="#000000" stroke="#000000" stroke-width="1" x1="89" x2="89" y1="73" y2="78"/>
<line fill="#000000" stroke="#000000" stroke-width="1" x1="89" x2="89" y1="83" y2="88"/>
<line fill="#000000" stroke="#000000" stroke-width="1" x1="89" x2="89" y1="93" y2="98"/>
<line fill="#000000" stroke="#000000" stroke-width="1" x1="89" x2="89" y1="103" y2="108"/>
<line fill="#000000" stroke="#000000" stroke-width="1" x1="89" x2="89" y1="113" y2="118"/>
<line fill="#000000" stroke="#000000" stroke-width="1" x1="89" x2="89" y1="123" y2="128"/>
<line fill="#000000" stroke="#000000" stroke-width="1" x1="89" x2="89" y1="133" y2="138"/>
<line fill="#000000" stroke="#000000" stroke-width="1" x1="89" x2="89" y1="143" y2="148"/>
<line fill="#000000" stroke="#000000" stroke-width="1" x1="89" x2="89" y1="153" y2="158"/>
<line fill="#000000" stroke="#000000" stroke-width="1" x1="89" x2="89" y1="163" y2="168"/>
<line fill="#000000" stroke="#000000" stroke-width="1" x1="89" x2="89" y1="173" y2="178"/>
<line fill="#000000" stroke="#000000" stroke-width="1" x1="89" x2="89" y1="183" y2="188"/>
<line fill="#000000" stroke="#000000" stroke-width="1" x1="89" x2="89" y1="193" y2="198"/>
<line fill="#000000" stroke="#000000" stroke-width="1" x1="89" x2="89" y1="203" y2="208"/>
<line fill="#000000" stroke="#000000" stroke-width="1" x1="89" x2="89" y1="213" y2="218"/>
<line fill="#000000" stroke="#000000" stroke-width="1" x1="89" x2="89" y1="223" y2="228"/>
<line fill="#000000" stroke="#000000" stroke-width="1" x1="89" x2="89" y1="233" y2="238"/>
<line fill="#000000" stroke="#000000" stroke-width="1" x1="89" x2="89" y1="243" y2="248"/>
<line fill="#000000" stroke="#000000" stroke-width="1" x1="89" x2="89" y1="253" y2="258"/>
<line fill="#000000" stroke="#000000" stroke-width="1" x1="89" x2="89" y1="263" y2="268"/>
<line fill="#000000" stroke="#000000" stroke-width="1" x1="89" x2="89" y1="273" y2="278"/>
<line fill="#000000" stroke="#000000" stroke-width="1" x1="89" x2="89" y1="283" y2="288"/>
<line fill="#000000" stroke="#000000" stroke-width="1" x1="89" x2="89" y1="293" y2="298"/>
<line fill="#000000" stroke="#000000" stroke-width="1" x1="89" x2="89" y1="303" y2="308"/>
<rect fill="#ffffff" height="247" stroke="#ffffff" stroke-width="1" width="20" x="79" y="63"/>
<rect fill="none" height="247" stroke="#000000" stroke-width="1" width="20" x="79" y="63"/>
<rect fill="#ffffff" height="50" stroke="#ffffff" stroke-width="1" width="150" x="14" y="14"/>
<rect fill="none" height="50" stroke="#000000" stroke-width="1" width="150" x="14" y="14"/>
<text font-family="Lucida Grande" font-size="13" x="74" y="28">
:TDE</text>
<line fill="#000000" stroke="#000000" stroke-width="1" x1="618" x2="618" y1="63" y2="68"/>
<line fill="#000000" stroke="#000000" stroke-width="1" x1="618" x2="618" y1="73" y2="78"/>
<line fill="#000000" stroke="#000000" stroke-width="1" x1="618" x2="618" y1="83" y2="88"/>
<line fill="#000000" stroke="#000000" stroke-width="1" x1="618" x2="618" y1="93" y2="98"/>
<line fill="#000000" stroke="#000000" stroke-width="1" x1="618" x2="618" y1="103" y2="108"/>
<line fill="#000000" stroke="#000000" stroke-width="1" x1="618" x2="618" y1="113" y2="118"/>
<line fill="#000000" stroke="#000000" stroke-width="1" x1="618" x2="618" y1="123" y2="128"/>
<line fill="#000000" stroke="#000000" stroke-width="1" x1="618" x2="618" y1="133" y2="138"/>
<line fill="#000000" stroke="#000000" stroke-width="1" x1="618" x2="618" y1="143" y2="148"/>
<line fill="#000000" stroke="#000000" stroke-width="1" x1="618" x2="618" y1="153" y2="158"/>
<line fill="#000000" stroke="#000000" stroke-width="1" x1="618" x2="618" y1="163" y2="168"/>
<line fill="#000000" stroke="#000000" stroke-width="1" x1="618" x2="618" y1="173" y2="178"/>
<line fill="#000000" stroke="#000000" stroke-width="1" x1="618" x2="618" y1="183" y2="188"/>
<line fill="#000000" stroke="#000000" stroke-width="1" x1="618" x2="618" y1="193" y2="198"/>
<line fill="#000000" stroke="#000000" stroke-width="1" x1="618" x2="618" y1="203" y2="208"/>
<line fill="#000000" stroke="#000000" stroke-width="1" x1="618" x2="618" y1="213" y2="218"/>
<line fill="#000000" stroke="#000000" stroke-width="1" x1="618" x2="618" y1="223" y2="228"/>
<line fill="#000000" stroke="#000000" stroke-width="1" x1="618" x2="618" y1="233" y2="238"/>
<line fill="#000000" stroke="#000000" stroke-width="1" x1="618" x2="618" y1="243" y2="248"/>
<line fill="#000000" stroke="#000000" stroke-width="1" x1="618" x2="618" y1="253" y2="258"/>
<line fill="#000000" stroke="#000000" stroke-width="1" x1="618" x2="618" y1="263" y2="268"/>
<line fill="#000000" stroke="#000000" stroke-width="1" x1="618" x2="618" y1="273" y2="278"/>
<line fill="#000000" stroke="#000000" stroke-width="1" x1="618" x2="618" y1="283" y2="288"/>
<line fill="#000000" stroke="#000000" stroke-width="1" x1="618" x2="618" y1="293" y2="298"/>
<line fill="#000000" stroke="#000000" stroke-width="1" x1="618" x2="618" y1="303" y2="308"/>
<rect fill="#ffffff" height="247" stroke="#ffffff" stroke-width="1" width="20" x="608" y="63"/>
<rect fill="none" height="247" stroke="#000000" stroke-width="1" width="20" x="608" y="63"/>
<rect fill="#ffffff" height="50" stroke="#ffffff" stroke-width="1" width="152" x="542" y="14"/>
<rect fill="none" height="50" stroke="#000000" stroke-width="1" width="152" x="542" y="14"/>
<text font-family="Lucida Grande" font-size="13" x="591" y="28">
:Sistema</text>
<polyline fill="none" points="99,111 608,111" stroke="#000000" stroke-width="1"/>
<line fill="#000000" stroke="#000000" stroke-width="1" x1="596" x2="608" y1="118" y2="111"/>
<line fill="#000000" stroke="#000000" stroke-width="1" x1="596" x2="608" y1="104" y2="111"/>
<text font-family="Lucida Grande" font-size="13" x="226" y="106">
1:Richiesta sezione inserimento prodotti base</text>
<polyline fill="none" points="99,159 608,159" stroke="#000000" stroke-width="1"/>
<line fill="#000000" stroke="#000000" stroke-width="1" x1="596" x2="608" y1="166" y2="159"/>
<line fill="#000000" stroke="#000000" stroke-width="1" x1="596" x2="608" y1="152" y2="159"/>
<text font-family="Lucida Grande" font-size="13" x="256" y="154">
2:Inserimento campi prodotto base</text>
<line fill="#000000" stroke="#000000" stroke-width="1" x1="628" x2="646" y1="231" y2="231"/>
<line fill="#000000" stroke="#000000" stroke-width="1" x1="646" x2="663" y1="231" y2="232"/>
<line fill="#000000" stroke="#000000" stroke-width="1" x1="663" x2="677" y1="232" y2="233"/>
<line fill="#000000" stroke="#000000" stroke-width="1" x1="677" x2="688" y1="233" y2="235"/>
<line fill="#000000" stroke="#000000" stroke-width="1" x1="688" x2="696" y1="235" y2="237"/>
<line fill="#000000" stroke="#000000" stroke-width="1" x1="696" x2="701" y1="237" y2="239"/>
<line fill="#000000" stroke="#000000" stroke-width="1" x1="701" x2="702" y1="239" y2="240"/>
<line fill="#000000" stroke="#000000" stroke-width="1" x1="702" x2="701" y1="240" y2="242"/>
<line fill="#000000" stroke="#000000" stroke-width="1" x1="701" x2="696" y1="242" y2="244"/>
<line fill="#000000" stroke="#000000" stroke-width="1" x1="696" x2="688" y1="244" y2="246"/>
<line fill="#000000" stroke="#000000" stroke-width="1" x1="688" x2="669" y1="246" y2="247"/>
<line fill="#000000" stroke="#000000" stroke-width="1" x1="669" x2="653" y1="247" y2="249"/>
<line fill="#000000" stroke="#000000" stroke-width="1" x1="653" x2="639" y1="249" y2="250"/>
<line fill="#000000" stroke="#000000" stroke-width="1" x1="639" x2="628" y1="250" y2="251"/>
<line fill="#000000" stroke="#000000" stroke-width="1" x1="640" x2="628" y1="244" y2="251"/>
<line fill="#000000" stroke="#000000" stroke-width="1" x1="640" x2="628" y1="258" y2="251"/>
<text font-family="Lucida Grande" font-size="13" x="730" y="246">
3:Salvataggio prodotto</text>
</svg>
