<?xml version="1.0" encoding="utf-8" ?>
<!DOCTYPE svg PUBLIC "-//W3C//DTD SVG 1.1//EN" "http://www.w3.org/Graphics/SVG/1.1/DTD/svg11.dtd">
<svg height="371" version="1.1" width="745" xmlns="http://www.w3.org/2000/svg">
<line fill="#000000" stroke="#000000" stroke-width="1" x1="89" x2="89" y1="63" y2="68"/>
<line fill="#000000" stroke="#000000" stroke-width="1" x1="89" x2="89" y1="73" y2="78"/>
<line fill="#000000" stroke="#000000" stroke-width="1" x1="89" x2="89" y1="83" y2="88"/>
<line fill="#000000" stroke="#000000" stroke-width="1" x1="89" x2="89" y1="93" y2="98"/>
<line fill="#000000" stroke="#000000" stroke-width="1" x1="89" x2="89" y1="103" y2="108"/>
<line fill="#000000" stroke="#000000" stroke-width="1" x1="89" x2="89" y1="113" y2="118"/>
<line fill="#000000" stroke="#000000" stroke-width="1" x1="89" x2="89" y1="123" y2="128"/>
<line fill="#000000" stroke="#000000" stroke-width="1" x1="89" x2="89" y1="133" y2="138"/>
<line fill="#000000" stroke="#000000" stroke-width="1" x1="89" x2="89" y1="143" y2="148"/>
<line fill="#000000" stroke="#000000" stroke-width="1" x1="89" x2="89" y1="153" y2="158"/>
<line fill="#000000" stroke="#000000" stroke-width="1" x1="89" x2="89" y1="163" y2="168"/>
<line fill="#000000" stroke="#000000" stroke-width="1" x1="89" x2="89" y1="173" y2="178"/>
<line fill="#000000" stroke="#000000" stroke-width="1" x1="89" x2="89" y1="183" y2="188"/>
<line fill="#000000" stroke="#000000" stroke-width="1" x1="89" x2="89" y1="193" y2="198"/>
<line fill="#000000" stroke="#000000" stroke-width="1" x1="89" x2="89" y1="203" y2="208"/>
<line fill="#000000" stroke="#000000" stroke-width="1" x1="89" x2="89" y1="213" y2="218"/>
<line fill="#000000" stroke="#000000" stroke-width="1" x1="89" x2="89" y1="223" y2="228"/>
<line fill="#000000" stroke="#000000" stroke-width="1" x1="89" x2="89" y1="233" y2="238"/>
<line fill="#000000" stroke="#000000" stroke-width="1" x1="89" x2="89" y1="243" y2="248"/>
<line fill="#000000" stroke="#000000" stroke-width="1" x1="89" x2="89" y1="253" y2="258"/>
<line fill="#000000" stroke="#000000" stroke-width="1" x1="89" x2="89" y1="263" y2="268"/>
<line fill="#000000" stroke="#000000" stroke-width="1" x1="89" x2="89" y1="273" y2="278"/>
<line fill="#000000" stroke="#000000" stroke-width="1" x1="89" x2="89" y1="283" y2="288"/>
<line fill="#000000" stroke="#000000" stroke-width="1" x1="89" x2="89" y1="293" y2="298"/>
<line fill="#000000" stroke="#000000" stroke-width="1" x1="89" x2="89" y1="303" y2="308"/>
<line fill="#000000" stroke="#000000" stroke-width="1" x1="89" x2="89" y1="313" y2="318"/>
<line fill="#000000" stroke="#000000" stroke-width="1" x1="89" x2="89" y1="323" y2="328"/>
<line fill="#000000" stroke="#000000" stroke-width="1" x1="89" x2="89" y1="333" y2="338"/>
<line fill="#000000" stroke="#000000" stroke-width="1" x1="89" x2="89" y1="343" y2="348"/>
<line fill="#000000" stroke="#000000" stroke-width="1" x1="89" x2="89" y1="353" y2="356"/>
<rect fill="#ffffff" height="293" stroke="#ffffff" stroke-width="1" width="20" x="79" y="63"/>
<rect fill="none" height="293" stroke="#000000" stroke-width="1" width="20" x="79" y="63"/>
<rect fill="#ffffff" height="50" stroke="#ffffff" stroke-width="1" width="150" x="14" y="14"/>
<rect fill="none" height="50" stroke="#000000" stroke-width="1" width="150" x="14" y="14"/>
<text font-family="Lucida Grande" font-size="13" x="74" y="28">
:TDE</text>
<line fill="#000000" stroke="#000000" stroke-width="1" x1="530" x2="530" y1="63" y2="68"/>
<line fill="#000000" stroke="#000000" stroke-width="1" x1="530" x2="530" y1="73" y2="78"/>
<line fill="#000000" stroke="#000000" stroke-width="1" x1="530" x2="530" y1="83" y2="88"/>
<line fill="#000000" stroke="#000000" stroke-width="1" x1="530" x2="530" y1="93" y2="98"/>
<line fill="#000000" stroke="#000000" stroke-width="1" x1="530" x2="530" y1="103" y2="108"/>
<line fill="#000000" stroke="#000000" stroke-width="1" x1="530" x2="530" y1="113" y2="118"/>
<line fill="#000000" stroke="#000000" stroke-width="1" x1="530" x2="530" y1="123" y2="128"/>
<line fill="#000000" stroke="#000000" stroke-width="1" x1="530" x2="530" y1="133" y2="138"/>
<line fill="#000000" stroke="#000000" stroke-width="1" x1="530" x2="530" y1="143" y2="148"/>
<line fill="#000000" stroke="#000000" stroke-width="1" x1="530" x2="530" y1="153" y2="158"/>
<line fill="#000000" stroke="#000000" stroke-width="1" x1="530" x2="530" y1="163" y2="168"/>
<line fill="#000000" stroke="#000000" stroke-width="1" x1="530" x2="530" y1="173" y2="178"/>
<line fill="#000000" stroke="#000000" stroke-width="1" x1="530" x2="530" y1="183" y2="188"/>
<line fill="#000000" stroke="#000000" stroke-width="1" x1="530" x2="530" y1="193" y2="198"/>
<line fill="#000000" stroke="#000000" stroke-width="1" x1="530" x2="530" y1="203" y2="208"/>
<line fill="#000000" stroke="#000000" stroke-width="1" x1="530" x2="530" y1="213" y2="218"/>
<line fill="#000000" stroke="#000000" stroke-width="1" x1="530" x2="530" y1="223" y2="228"/>
<line fill="#000000" stroke="#000000" stroke-width="1" x1="530" x2="530" y1="233" y2="238"/>
<line fill="#000000" stroke="#000000" stroke-width="1" x1="530" x2="530" y1="243" y2="248"/>
<line fill="#000000" stroke="#000000" stroke-width="1" x1="530" x2="530" y1="253" y2="258"/>
<line fill="#000000" stroke="#000000" stroke-width="1" x1="530" x2="530" y1="263" y2="268"/>
<line fill="#000000" stroke="#000000" stroke-width="1" x1="530" x2="530" y1="273" y2="278"/>
<line fill="#000000" stroke="#000000" stroke-width="1" x1="530" x2="530" y1="283" y2="288"/>
<line fill="#000000" stroke="#000000" stroke-width="1" x1="530" x2="530" y1="293" y2="298"/>
<line fill="#000000" stroke="#000000" stroke-width="1" x1="530" x2="530" y1="303" y2="308"/>
<line fill="#000000" stroke="#000000" stroke-width="1" x1="530" x2="530" y1="313" y2="318"/>
<line fill="#000000" stroke="#000000" stroke-width="1" x1="530" x2="530" y1="323" y2="328"/>
<line fill="#000000" stroke="#000000" stroke-width="1" x1="530" x2="530" y1="333" y2="338"/>
<line fill="#000000" stroke="#000000" stroke-width="1" x1="530" x2="530" y1="343" y2="348"/>
<line fill="#000000" stroke="#000000" stroke-width="1" x1="530" x2="530" y1="353" y2="356"/>
<rect fill="#ffffff" height="293" stroke="#ffffff" stroke-width="1" width="20" x="520" y="63"/>
<rect fill="none" height="293" stroke="#000000" stroke-width="1" width="20" x="520" y="63"/>
<rect fill="#ffffff" height="50" stroke="#ffffff" stroke-width="1" width="136" x="462" y="14"/>
<rect fill="none" height="50" stroke="#000000" stroke-width="1" width="136" x="462" y="14"/>
<text font-family="Lucida Grande" font-size="13" x="503" y="28">
:Sistema</text>
<polyline fill="none" points="99,101 520,101" stroke="#000000" stroke-width="1"/>
<line fill="#000000" stroke="#000000" stroke-width="1" x1="508" x2="520" y1="108" y2="101"/>
<line fill="#000000" stroke="#000000" stroke-width="1" x1="508" x2="520" y1="94" y2="101"/>
<text font-family="Lucida Grande" font-size="13" x="201" y="96">
1:Richiesta area modifica pacchetti</text>
<polyline fill="none" points="99,165 520,165" stroke="#000000" stroke-width="1"/>
<line fill="#000000" stroke="#000000" stroke-width="1" x1="508" x2="520" y1="172" y2="165"/>
<line fill="#000000" stroke="#000000" stroke-width="1" x1="508" x2="520" y1="158" y2="165"/>
<text font-family="Lucida Grande" font-size="13" x="214" y="160">
2:Selezione pacchetto desiderato</text>
<polyline fill="none" points="99,229 520,229" stroke="#000000" stroke-width="1"/>
<line fill="#000000" stroke="#000000" stroke-width="1" x1="508" x2="520" y1="236" y2="229"/>
<line fill="#000000" stroke="#000000" stroke-width="1" x1="508" x2="520" y1="222" y2="229"/>
<text font-family="Lucida Grande" font-size="13" x="169" y="224">
3:Modifica composizione pacchetto desiderato</text>
<line fill="#000000" stroke="#000000" stroke-width="1" x1="540" x2="558" y1="269" y2="269"/>
<line fill="#000000" stroke="#000000" stroke-width="1" x1="558" x2="575" y1="269" y2="270"/>
<line fill="#000000" stroke="#000000" stroke-width="1" x1="575" x2="589" y1="270" y2="271"/>
<line fill="#000000" stroke="#000000" stroke-width="1" x1="589" x2="600" y1="271" y2="273"/>
<line fill="#000000" stroke="#000000" stroke-width="1" x1="600" x2="608" y1="273" y2="275"/>
<line fill="#000000" stroke="#000000" stroke-width="1" x1="608" x2="613" y1="275" y2="277"/>
<line fill="#000000" stroke="#000000" stroke-width="1" x1="613" x2="614" y1="277" y2="278"/>
<line fill="#000000" stroke="#000000" stroke-width="1" x1="614" x2="613" y1="278" y2="280"/>
<line fill="#000000" stroke="#000000" stroke-width="1" x1="613" x2="608" y1="280" y2="282"/>
<line fill="#000000" stroke="#000000" stroke-width="1" x1="608" x2="600" y1="282" y2="284"/>
<line fill="#000000" stroke="#000000" stroke-width="1" x1="600" x2="581" y1="284" y2="285"/>
<line fill="#000000" stroke="#000000" stroke-width="1" x1="581" x2="565" y1="285" y2="287"/>
<line fill="#000000" stroke="#000000" stroke-width="1" x1="565" x2="551" y1="287" y2="288"/>
<line fill="#000000" stroke="#000000" stroke-width="1" x1="551" x2="540" y1="288" y2="289"/>
<line fill="#000000" stroke="#000000" stroke-width="1" x1="552" x2="540" y1="282" y2="289"/>
<line fill="#000000" stroke="#000000" stroke-width="1" x1="552" x2="540" y1="296" y2="289"/>
<text font-family="Lucida Grande" font-size="13" x="642" y="284">
4:Modifica pacchetto</text>
</svg>
