<?xml version="1.0" encoding="utf-8" ?>
<!DOCTYPE svg PUBLIC "-//W3C//DTD SVG 1.1//EN" "http://www.w3.org/Graphics/SVG/1.1/DTD/svg11.dtd">
<svg height="347" version="1.1" width="695" xmlns="http://www.w3.org/2000/svg">
<line fill="#000000" stroke="#000000" stroke-width="1" x1="89" x2="89" y1="63" y2="68"/>
<line fill="#000000" stroke="#000000" stroke-width="1" x1="89" x2="89" y1="73" y2="78"/>
<line fill="#000000" stroke="#000000" stroke-width="1" x1="89" x2="89" y1="83" y2="88"/>
<line fill="#000000" stroke="#000000" stroke-width="1" x1="89" x2="89" y1="93" y2="98"/>
<line fill="#000000" stroke="#000000" stroke-width="1" x1="89" x2="89" y1="103" y2="108"/>
<line fill="#000000" stroke="#000000" stroke-width="1" x1="89" x2="89" y1="113" y2="118"/>
<line fill="#000000" stroke="#000000" stroke-width="1" x1="89" x2="89" y1="123" y2="128"/>
<line fill="#000000" stroke="#000000" stroke-width="1" x1="89" x2="89" y1="133" y2="138"/>
<line fill="#000000" stroke="#000000" stroke-width="1" x1="89" x2="89" y1="143" y2="148"/>
<line fill="#000000" stroke="#000000" stroke-width="1" x1="89" x2="89" y1="153" y2="158"/>
<line fill="#000000" stroke="#000000" stroke-width="1" x1="89" x2="89" y1="163" y2="168"/>
<line fill="#000000" stroke="#000000" stroke-width="1" x1="89" x2="89" y1="173" y2="178"/>
<line fill="#000000" stroke="#000000" stroke-width="1" x1="89" x2="89" y1="183" y2="188"/>
<line fill="#000000" stroke="#000000" stroke-width="1" x1="89" x2="89" y1="193" y2="198"/>
<line fill="#000000" stroke="#000000" stroke-width="1" x1="89" x2="89" y1="203" y2="208"/>
<line fill="#000000" stroke="#000000" stroke-width="1" x1="89" x2="89" y1="213" y2="218"/>
<line fill="#000000" stroke="#000000" stroke-width="1" x1="89" x2="89" y1="223" y2="228"/>
<line fill="#000000" stroke="#000000" stroke-width="1" x1="89" x2="89" y1="233" y2="238"/>
<line fill="#000000" stroke="#000000" stroke-width="1" x1="89" x2="89" y1="243" y2="248"/>
<line fill="#000000" stroke="#000000" stroke-width="1" x1="89" x2="89" y1="253" y2="258"/>
<line fill="#000000" stroke="#000000" stroke-width="1" x1="89" x2="89" y1="263" y2="268"/>
<line fill="#000000" stroke="#000000" stroke-width="1" x1="89" x2="89" y1="273" y2="278"/>
<line fill="#000000" stroke="#000000" stroke-width="1" x1="89" x2="89" y1="283" y2="288"/>
<line fill="#000000" stroke="#000000" stroke-width="1" x1="89" x2="89" y1="293" y2="298"/>
<line fill="#000000" stroke="#000000" stroke-width="1" x1="89" x2="89" y1="303" y2="308"/>
<line fill="#000000" stroke="#000000" stroke-width="1" x1="89" x2="89" y1="313" y2="318"/>
<line fill="#000000" stroke="#000000" stroke-width="1" x1="89" x2="89" y1="323" y2="328"/>
<rect fill="#ffffff" height="269" stroke="#ffffff" stroke-width="1" width="20" x="79" y="63"/>
<rect fill="none" height="269" stroke="#000000" stroke-width="1" width="20" x="79" y="63"/>
<rect fill="#ffffff" height="50" stroke="#ffffff" stroke-width="1" width="150" x="14" y="14"/>
<rect fill="none" height="50" stroke="#000000" stroke-width="1" width="150" x="14" y="14"/>
<text font-family="Lucida Grande" font-size="13" x="74" y="28">
:TDE</text>
<line fill="#000000" stroke="#000000" stroke-width="1" x1="480" x2="480" y1="63" y2="68"/>
<line fill="#000000" stroke="#000000" stroke-width="1" x1="480" x2="480" y1="73" y2="78"/>
<line fill="#000000" stroke="#000000" stroke-width="1" x1="480" x2="480" y1="83" y2="88"/>
<line fill="#000000" stroke="#000000" stroke-width="1" x1="480" x2="480" y1="93" y2="98"/>
<line fill="#000000" stroke="#000000" stroke-width="1" x1="480" x2="480" y1="103" y2="108"/>
<line fill="#000000" stroke="#000000" stroke-width="1" x1="480" x2="480" y1="113" y2="118"/>
<line fill="#000000" stroke="#000000" stroke-width="1" x1="480" x2="480" y1="123" y2="128"/>
<line fill="#000000" stroke="#000000" stroke-width="1" x1="480" x2="480" y1="133" y2="138"/>
<line fill="#000000" stroke="#000000" stroke-width="1" x1="480" x2="480" y1="143" y2="148"/>
<line fill="#000000" stroke="#000000" stroke-width="1" x1="480" x2="480" y1="153" y2="158"/>
<line fill="#000000" stroke="#000000" stroke-width="1" x1="480" x2="480" y1="163" y2="168"/>
<line fill="#000000" stroke="#000000" stroke-width="1" x1="480" x2="480" y1="173" y2="178"/>
<line fill="#000000" stroke="#000000" stroke-width="1" x1="480" x2="480" y1="183" y2="188"/>
<line fill="#000000" stroke="#000000" stroke-width="1" x1="480" x2="480" y1="193" y2="198"/>
<line fill="#000000" stroke="#000000" stroke-width="1" x1="480" x2="480" y1="203" y2="208"/>
<line fill="#000000" stroke="#000000" stroke-width="1" x1="480" x2="480" y1="213" y2="218"/>
<line fill="#000000" stroke="#000000" stroke-width="1" x1="480" x2="480" y1="223" y2="228"/>
<line fill="#000000" stroke="#000000" stroke-width="1" x1="480" x2="480" y1="233" y2="238"/>
<line fill="#000000" stroke="#000000" stroke-width="1" x1="480" x2="480" y1="243" y2="248"/>
<line fill="#000000" stroke="#000000" stroke-width="1" x1="480" x2="480" y1="253" y2="258"/>
<line fill="#000000" stroke="#000000" stroke-width="1" x1="480" x2="480" y1="263" y2="268"/>
<line fill="#000000" stroke="#000000" stroke-width="1" x1="480" x2="480" y1="273" y2="278"/>
<line fill="#000000" stroke="#000000" stroke-width="1" x1="480" x2="480" y1="283" y2="288"/>
<line fill="#000000" stroke="#000000" stroke-width="1" x1="480" x2="480" y1="293" y2="298"/>
<line fill="#000000" stroke="#000000" stroke-width="1" x1="480" x2="480" y1="303" y2="308"/>
<line fill="#000000" stroke="#000000" stroke-width="1" x1="480" x2="480" y1="313" y2="318"/>
<line fill="#000000" stroke="#000000" stroke-width="1" x1="480" x2="480" y1="323" y2="328"/>
<rect fill="#ffffff" height="269" stroke="#ffffff" stroke-width="1" width="20" x="470" y="63"/>
<rect fill="none" height="269" stroke="#000000" stroke-width="1" width="20" x="470" y="63"/>
<rect fill="#ffffff" height="50" stroke="#ffffff" stroke-width="1" width="144" x="408" y="14"/>
<rect fill="none" height="50" stroke="#000000" stroke-width="1" width="144" x="408" y="14"/>
<text font-family="Lucida Grande" font-size="13" x="453" y="28">
:Sistema</text>
<polyline fill="none" points="99,117 470,117" stroke="#000000" stroke-width="1"/>
<line fill="#000000" stroke="#000000" stroke-width="1" x1="458" x2="470" y1="124" y2="117"/>
<line fill="#000000" stroke="#000000" stroke-width="1" x1="458" x2="470" y1="110" y2="117"/>
<text font-family="Lucida Grande" font-size="13" x="176" y="112">
1:Richiesta area modifica prodotti base</text>
<polyline fill="none" points="99,173 470,173" stroke="#000000" stroke-width="1"/>
<line fill="#000000" stroke="#000000" stroke-width="1" x1="458" x2="470" y1="180" y2="173"/>
<line fill="#000000" stroke="#000000" stroke-width="1" x1="458" x2="470" y1="166" y2="173"/>
<text font-family="Lucida Grande" font-size="13" x="189" y="168">
2:Seleziona pacchetto desiderato</text>
<polyline fill="none" points="99,229 470,229" stroke="#000000" stroke-width="1"/>
<line fill="#000000" stroke="#000000" stroke-width="1" x1="458" x2="470" y1="236" y2="229"/>
<line fill="#000000" stroke="#000000" stroke-width="1" x1="458" x2="470" y1="222" y2="229"/>
<text font-family="Lucida Grande" font-size="13" x="240" y="224">
3:Modifiche al prodotto base</text>
<line fill="#000000" stroke="#000000" stroke-width="1" x1="490" x2="508" y1="261" y2="261"/>
<line fill="#000000" stroke="#000000" stroke-width="1" x1="508" x2="525" y1="261" y2="262"/>
<line fill="#000000" stroke="#000000" stroke-width="1" x1="525" x2="539" y1="262" y2="263"/>
<line fill="#000000" stroke="#000000" stroke-width="1" x1="539" x2="550" y1="263" y2="265"/>
<line fill="#000000" stroke="#000000" stroke-width="1" x1="550" x2="558" y1="265" y2="267"/>
<line fill="#000000" stroke="#000000" stroke-width="1" x1="558" x2="563" y1="267" y2="269"/>
<line fill="#000000" stroke="#000000" stroke-width="1" x1="563" x2="564" y1="269" y2="270"/>
<line fill="#000000" stroke="#000000" stroke-width="1" x1="564" x2="563" y1="270" y2="272"/>
<line fill="#000000" stroke="#000000" stroke-width="1" x1="563" x2="558" y1="272" y2="274"/>
<line fill="#000000" stroke="#000000" stroke-width="1" x1="558" x2="550" y1="274" y2="276"/>
<line fill="#000000" stroke="#000000" stroke-width="1" x1="550" x2="531" y1="276" y2="277"/>
<line fill="#000000" stroke="#000000" stroke-width="1" x1="531" x2="515" y1="277" y2="279"/>
<line fill="#000000" stroke="#000000" stroke-width="1" x1="515" x2="501" y1="279" y2="280"/>
<line fill="#000000" stroke="#000000" stroke-width="1" x1="501" x2="490" y1="280" y2="281"/>
<line fill="#000000" stroke="#000000" stroke-width="1" x1="502" x2="490" y1="274" y2="281"/>
<line fill="#000000" stroke="#000000" stroke-width="1" x1="502" x2="490" y1="288" y2="281"/>
<text font-family="Lucida Grande" font-size="13" x="592" y="276">
4:Aggionamento pacchetto base</text>
</svg>
