<?xml version="1.0" encoding="utf-8" ?>
<!DOCTYPE svg PUBLIC "-//W3C//DTD SVG 1.1//EN" "http://www.w3.org/Graphics/SVG/1.1/DTD/svg11.dtd">
<svg height="332" version="1.1" width="677" xmlns="http://www.w3.org/2000/svg">
<line fill="#000000" stroke="#000000" stroke-width="1" x1="462" x2="462" y1="63" y2="68"/>
<line fill="#000000" stroke="#000000" stroke-width="1" x1="462" x2="462" y1="73" y2="78"/>
<line fill="#000000" stroke="#000000" stroke-width="1" x1="462" x2="462" y1="83" y2="88"/>
<line fill="#000000" stroke="#000000" stroke-width="1" x1="462" x2="462" y1="93" y2="98"/>
<line fill="#000000" stroke="#000000" stroke-width="1" x1="462" x2="462" y1="103" y2="108"/>
<line fill="#000000" stroke="#000000" stroke-width="1" x1="462" x2="462" y1="113" y2="118"/>
<line fill="#000000" stroke="#000000" stroke-width="1" x1="462" x2="462" y1="123" y2="128"/>
<line fill="#000000" stroke="#000000" stroke-width="1" x1="462" x2="462" y1="133" y2="138"/>
<line fill="#000000" stroke="#000000" stroke-width="1" x1="462" x2="462" y1="143" y2="148"/>
<line fill="#000000" stroke="#000000" stroke-width="1" x1="462" x2="462" y1="153" y2="158"/>
<line fill="#000000" stroke="#000000" stroke-width="1" x1="462" x2="462" y1="163" y2="168"/>
<line fill="#000000" stroke="#000000" stroke-width="1" x1="462" x2="462" y1="173" y2="178"/>
<line fill="#000000" stroke="#000000" stroke-width="1" x1="462" x2="462" y1="183" y2="188"/>
<line fill="#000000" stroke="#000000" stroke-width="1" x1="462" x2="462" y1="193" y2="198"/>
<line fill="#000000" stroke="#000000" stroke-width="1" x1="462" x2="462" y1="203" y2="208"/>
<line fill="#000000" stroke="#000000" stroke-width="1" x1="462" x2="462" y1="213" y2="218"/>
<line fill="#000000" stroke="#000000" stroke-width="1" x1="462" x2="462" y1="223" y2="228"/>
<line fill="#000000" stroke="#000000" stroke-width="1" x1="462" x2="462" y1="233" y2="238"/>
<line fill="#000000" stroke="#000000" stroke-width="1" x1="462" x2="462" y1="243" y2="248"/>
<line fill="#000000" stroke="#000000" stroke-width="1" x1="462" x2="462" y1="253" y2="258"/>
<line fill="#000000" stroke="#000000" stroke-width="1" x1="462" x2="462" y1="263" y2="268"/>
<line fill="#000000" stroke="#000000" stroke-width="1" x1="462" x2="462" y1="273" y2="278"/>
<line fill="#000000" stroke="#000000" stroke-width="1" x1="462" x2="462" y1="283" y2="288"/>
<line fill="#000000" stroke="#000000" stroke-width="1" x1="462" x2="462" y1="293" y2="298"/>
<line fill="#000000" stroke="#000000" stroke-width="1" x1="462" x2="462" y1="303" y2="308"/>
<line fill="#000000" stroke="#000000" stroke-width="1" x1="462" x2="462" y1="313" y2="317"/>
<rect fill="#ffffff" height="254" stroke="#ffffff" stroke-width="1" width="20" x="452" y="63"/>
<rect fill="none" height="254" stroke="#000000" stroke-width="1" width="20" x="452" y="63"/>
<rect fill="#ffffff" height="50" stroke="#ffffff" stroke-width="1" width="160" x="382" y="14"/>
<rect fill="none" height="50" stroke="#000000" stroke-width="1" width="160" x="382" y="14"/>
<text font-family="Lucida Grande" font-size="13" x="435" y="28">
:Sistema</text>
<line fill="#000000" stroke="#000000" stroke-width="1" x1="89" x2="89" y1="63" y2="68"/>
<line fill="#000000" stroke="#000000" stroke-width="1" x1="89" x2="89" y1="73" y2="78"/>
<line fill="#000000" stroke="#000000" stroke-width="1" x1="89" x2="89" y1="83" y2="88"/>
<line fill="#000000" stroke="#000000" stroke-width="1" x1="89" x2="89" y1="93" y2="98"/>
<line fill="#000000" stroke="#000000" stroke-width="1" x1="89" x2="89" y1="103" y2="108"/>
<line fill="#000000" stroke="#000000" stroke-width="1" x1="89" x2="89" y1="113" y2="118"/>
<line fill="#000000" stroke="#000000" stroke-width="1" x1="89" x2="89" y1="123" y2="128"/>
<line fill="#000000" stroke="#000000" stroke-width="1" x1="89" x2="89" y1="133" y2="138"/>
<line fill="#000000" stroke="#000000" stroke-width="1" x1="89" x2="89" y1="143" y2="148"/>
<line fill="#000000" stroke="#000000" stroke-width="1" x1="89" x2="89" y1="153" y2="158"/>
<line fill="#000000" stroke="#000000" stroke-width="1" x1="89" x2="89" y1="163" y2="168"/>
<line fill="#000000" stroke="#000000" stroke-width="1" x1="89" x2="89" y1="173" y2="178"/>
<line fill="#000000" stroke="#000000" stroke-width="1" x1="89" x2="89" y1="183" y2="188"/>
<line fill="#000000" stroke="#000000" stroke-width="1" x1="89" x2="89" y1="193" y2="198"/>
<line fill="#000000" stroke="#000000" stroke-width="1" x1="89" x2="89" y1="203" y2="208"/>
<line fill="#000000" stroke="#000000" stroke-width="1" x1="89" x2="89" y1="213" y2="218"/>
<line fill="#000000" stroke="#000000" stroke-width="1" x1="89" x2="89" y1="223" y2="228"/>
<line fill="#000000" stroke="#000000" stroke-width="1" x1="89" x2="89" y1="233" y2="238"/>
<line fill="#000000" stroke="#000000" stroke-width="1" x1="89" x2="89" y1="243" y2="248"/>
<line fill="#000000" stroke="#000000" stroke-width="1" x1="89" x2="89" y1="253" y2="258"/>
<line fill="#000000" stroke="#000000" stroke-width="1" x1="89" x2="89" y1="263" y2="268"/>
<line fill="#000000" stroke="#000000" stroke-width="1" x1="89" x2="89" y1="273" y2="278"/>
<line fill="#000000" stroke="#000000" stroke-width="1" x1="89" x2="89" y1="283" y2="288"/>
<line fill="#000000" stroke="#000000" stroke-width="1" x1="89" x2="89" y1="293" y2="298"/>
<line fill="#000000" stroke="#000000" stroke-width="1" x1="89" x2="89" y1="303" y2="308"/>
<line fill="#000000" stroke="#000000" stroke-width="1" x1="89" x2="89" y1="313" y2="317"/>
<rect fill="#ffffff" height="254" stroke="#ffffff" stroke-width="1" width="20" x="79" y="63"/>
<rect fill="none" height="254" stroke="#000000" stroke-width="1" width="20" x="79" y="63"/>
<rect fill="#ffffff" height="50" stroke="#ffffff" stroke-width="1" width="150" x="14" y="14"/>
<rect fill="none" height="50" stroke="#000000" stroke-width="1" width="150" x="14" y="14"/>
<text font-family="Lucida Grande" font-size="13" x="73" y="28">
:TDC</text>
<polyline fill="none" points="99,86 452,86" stroke="#000000" stroke-width="1"/>
<line fill="#000000" stroke="#000000" stroke-width="1" x1="440" x2="452" y1="93" y2="86"/>
<line fill="#000000" stroke="#000000" stroke-width="1" x1="440" x2="452" y1="79" y2="86"/>
<text font-family="Lucida Grande" font-size="13" x="160" y="81">
1:Richiesta pagina di registraziuone</text>
<polyline fill="none" points="99,142 452,142" stroke="#000000" stroke-width="1"/>
<line fill="#000000" stroke="#000000" stroke-width="1" x1="440" x2="452" y1="149" y2="142"/>
<line fill="#000000" stroke="#000000" stroke-width="1" x1="440" x2="452" y1="135" y2="142"/>
<text font-family="Lucida Grande" font-size="13" x="149" y="137">
2:Invia nome,cognome,username,password</text>
<line fill="#000000" stroke="#000000" stroke-width="1" x1="472" x2="490" y1="166" y2="166"/>
<line fill="#000000" stroke="#000000" stroke-width="1" x1="490" x2="507" y1="166" y2="167"/>
<line fill="#000000" stroke="#000000" stroke-width="1" x1="507" x2="521" y1="167" y2="168"/>
<line fill="#000000" stroke="#000000" stroke-width="1" x1="521" x2="532" y1="168" y2="170"/>
<line fill="#000000" stroke="#000000" stroke-width="1" x1="532" x2="540" y1="170" y2="172"/>
<line fill="#000000" stroke="#000000" stroke-width="1" x1="540" x2="545" y1="172" y2="174"/>
<line fill="#000000" stroke="#000000" stroke-width="1" x1="545" x2="546" y1="174" y2="175"/>
<line fill="#000000" stroke="#000000" stroke-width="1" x1="546" x2="545" y1="175" y2="177"/>
<line fill="#000000" stroke="#000000" stroke-width="1" x1="545" x2="540" y1="177" y2="179"/>
<line fill="#000000" stroke="#000000" stroke-width="1" x1="540" x2="532" y1="179" y2="181"/>
<line fill="#000000" stroke="#000000" stroke-width="1" x1="532" x2="513" y1="181" y2="182"/>
<line fill="#000000" stroke="#000000" stroke-width="1" x1="513" x2="497" y1="182" y2="184"/>
<line fill="#000000" stroke="#000000" stroke-width="1" x1="497" x2="483" y1="184" y2="185"/>
<line fill="#000000" stroke="#000000" stroke-width="1" x1="483" x2="472" y1="185" y2="186"/>
<line fill="#000000" stroke="#000000" stroke-width="1" x1="484" x2="472" y1="179" y2="186"/>
<line fill="#000000" stroke="#000000" stroke-width="1" x1="484" x2="472" y1="193" y2="186"/>
<text font-family="Lucida Grande" font-size="13" x="574" y="178">
3:Valida dati</text>
<line fill="#000000" stroke="#000000" stroke-width="1" x1="452" x2="447" y1="230" y2="230"/>
<line fill="#000000" stroke="#000000" stroke-width="1" x1="442" x2="437" y1="230" y2="230"/>
<line fill="#000000" stroke="#000000" stroke-width="1" x1="432" x2="427" y1="230" y2="230"/>
<line fill="#000000" stroke="#000000" stroke-width="1" x1="422" x2="417" y1="230" y2="230"/>
<line fill="#000000" stroke="#000000" stroke-width="1" x1="412" x2="407" y1="230" y2="230"/>
<line fill="#000000" stroke="#000000" stroke-width="1" x1="402" x2="397" y1="230" y2="230"/>
<line fill="#000000" stroke="#000000" stroke-width="1" x1="392" x2="387" y1="230" y2="230"/>
<line fill="#000000" stroke="#000000" stroke-width="1" x1="382" x2="377" y1="230" y2="230"/>
<line fill="#000000" stroke="#000000" stroke-width="1" x1="372" x2="367" y1="230" y2="230"/>
<line fill="#000000" stroke="#000000" stroke-width="1" x1="362" x2="357" y1="230" y2="230"/>
<line fill="#000000" stroke="#000000" stroke-width="1" x1="352" x2="347" y1="230" y2="230"/>
<line fill="#000000" stroke="#000000" stroke-width="1" x1="342" x2="337" y1="230" y2="230"/>
<line fill="#000000" stroke="#000000" stroke-width="1" x1="332" x2="327" y1="230" y2="230"/>
<line fill="#000000" stroke="#000000" stroke-width="1" x1="322" x2="317" y1="230" y2="230"/>
<line fill="#000000" stroke="#000000" stroke-width="1" x1="312" x2="307" y1="230" y2="230"/>
<line fill="#000000" stroke="#000000" stroke-width="1" x1="302" x2="297" y1="230" y2="230"/>
<line fill="#000000" stroke="#000000" stroke-width="1" x1="292" x2="287" y1="230" y2="230"/>
<line fill="#000000" stroke="#000000" stroke-width="1" x1="282" x2="277" y1="230" y2="230"/>
<line fill="#000000" stroke="#000000" stroke-width="1" x1="272" x2="267" y1="230" y2="230"/>
<line fill="#000000" stroke="#000000" stroke-width="1" x1="262" x2="257" y1="230" y2="230"/>
<line fill="#000000" stroke="#000000" stroke-width="1" x1="252" x2="247" y1="230" y2="230"/>
<line fill="#000000" stroke="#000000" stroke-width="1" x1="242" x2="237" y1="230" y2="230"/>
<line fill="#000000" stroke="#000000" stroke-width="1" x1="232" x2="227" y1="230" y2="230"/>
<line fill="#000000" stroke="#000000" stroke-width="1" x1="222" x2="217" y1="230" y2="230"/>
<line fill="#000000" stroke="#000000" stroke-width="1" x1="212" x2="207" y1="230" y2="230"/>
<line fill="#000000" stroke="#000000" stroke-width="1" x1="202" x2="197" y1="230" y2="230"/>
<line fill="#000000" stroke="#000000" stroke-width="1" x1="192" x2="187" y1="230" y2="230"/>
<line fill="#000000" stroke="#000000" stroke-width="1" x1="182" x2="177" y1="230" y2="230"/>
<line fill="#000000" stroke="#000000" stroke-width="1" x1="172" x2="167" y1="230" y2="230"/>
<line fill="#000000" stroke="#000000" stroke-width="1" x1="162" x2="157" y1="230" y2="230"/>
<line fill="#000000" stroke="#000000" stroke-width="1" x1="152" x2="147" y1="230" y2="230"/>
<line fill="#000000" stroke="#000000" stroke-width="1" x1="142" x2="137" y1="230" y2="230"/>
<line fill="#000000" stroke="#000000" stroke-width="1" x1="132" x2="127" y1="230" y2="230"/>
<line fill="#000000" stroke="#000000" stroke-width="1" x1="122" x2="117" y1="230" y2="230"/>
<line fill="#000000" stroke="#000000" stroke-width="1" x1="112" x2="107" y1="230" y2="230"/>
<line fill="#000000" stroke="#000000" stroke-width="1" x1="102" x2="99" y1="230" y2="230"/>
<line fill="#000000" stroke="#000000" stroke-width="1" x1="111" x2="99" y1="223" y2="230"/>
<line fill="#000000" stroke="#000000" stroke-width="1" x1="111" x2="99" y1="237" y2="230"/>
<text font-family="Lucida Grande" font-size="13" x="176" y="225">
4.1:Conferma registrazione ed autentica</text>
<line fill="#000000" stroke="#000000" stroke-width="1" x1="452" x2="447" y1="270" y2="270"/>
<line fill="#000000" stroke="#000000" stroke-width="1" x1="442" x2="437" y1="270" y2="270"/>
<line fill="#000000" stroke="#000000" stroke-width="1" x1="432" x2="427" y1="270" y2="270"/>
<line fill="#000000" stroke="#000000" stroke-width="1" x1="422" x2="417" y1="270" y2="270"/>
<line fill="#000000" stroke="#000000" stroke-width="1" x1="412" x2="407" y1="270" y2="270"/>
<line fill="#000000" stroke="#000000" stroke-width="1" x1="402" x2="397" y1="270" y2="270"/>
<line fill="#000000" stroke="#000000" stroke-width="1" x1="392" x2="387" y1="270" y2="270"/>
<line fill="#000000" stroke="#000000" stroke-width="1" x1="382" x2="377" y1="270" y2="270"/>
<line fill="#000000" stroke="#000000" stroke-width="1" x1="372" x2="367" y1="270" y2="270"/>
<line fill="#000000" stroke="#000000" stroke-width="1" x1="362" x2="357" y1="270" y2="270"/>
<line fill="#000000" stroke="#000000" stroke-width="1" x1="352" x2="347" y1="270" y2="270"/>
<line fill="#000000" stroke="#000000" stroke-width="1" x1="342" x2="337" y1="270" y2="270"/>
<line fill="#000000" stroke="#000000" stroke-width="1" x1="332" x2="327" y1="270" y2="270"/>
<line fill="#000000" stroke="#000000" stroke-width="1" x1="322" x2="317" y1="270" y2="270"/>
<line fill="#000000" stroke="#000000" stroke-width="1" x1="312" x2="307" y1="270" y2="270"/>
<line fill="#000000" stroke="#000000" stroke-width="1" x1="302" x2="297" y1="270" y2="270"/>
<line fill="#000000" stroke="#000000" stroke-width="1" x1="292" x2="287" y1="270" y2="270"/>
<line fill="#000000" stroke="#000000" stroke-width="1" x1="282" x2="277" y1="270" y2="270"/>
<line fill="#000000" stroke="#000000" stroke-width="1" x1="272" x2="267" y1="270" y2="270"/>
<line fill="#000000" stroke="#000000" stroke-width="1" x1="262" x2="257" y1="270" y2="270"/>
<line fill="#000000" stroke="#000000" stroke-width="1" x1="252" x2="247" y1="270" y2="270"/>
<line fill="#000000" stroke="#000000" stroke-width="1" x1="242" x2="237" y1="270" y2="270"/>
<line fill="#000000" stroke="#000000" stroke-width="1" x1="232" x2="227" y1="270" y2="270"/>
<line fill="#000000" stroke="#000000" stroke-width="1" x1="222" x2="217" y1="270" y2="270"/>
<line fill="#000000" stroke="#000000" stroke-width="1" x1="212" x2="207" y1="270" y2="270"/>
<line fill="#000000" stroke="#000000" stroke-width="1" x1="202" x2="197" y1="270" y2="270"/>
<line fill="#000000" stroke="#000000" stroke-width="1" x1="192" x2="187" y1="270" y2="270"/>
<line fill="#000000" stroke="#000000" stroke-width="1" x1="182" x2="177" y1="270" y2="270"/>
<line fill="#000000" stroke="#000000" stroke-width="1" x1="172" x2="167" y1="270" y2="270"/>
<line fill="#000000" stroke="#000000" stroke-width="1" x1="162" x2="157" y1="270" y2="270"/>
<line fill="#000000" stroke="#000000" stroke-width="1" x1="152" x2="147" y1="270" y2="270"/>
<line fill="#000000" stroke="#000000" stroke-width="1" x1="142" x2="137" y1="270" y2="270"/>
<line fill="#000000" stroke="#000000" stroke-width="1" x1="132" x2="127" y1="270" y2="270"/>
<line fill="#000000" stroke="#000000" stroke-width="1" x1="122" x2="117" y1="270" y2="270"/>
<line fill="#000000" stroke="#000000" stroke-width="1" x1="112" x2="107" y1="270" y2="270"/>
<line fill="#000000" stroke="#000000" stroke-width="1" x1="102" x2="99" y1="270" y2="270"/>
<line fill="#000000" stroke="#000000" stroke-width="1" x1="111" x2="99" y1="263" y2="270"/>
<line fill="#000000" stroke="#000000" stroke-width="1" x1="111" x2="99" y1="277" y2="270"/>
<text font-family="Lucida Grande" font-size="13" x="215" y="265">
4.2:Redirige ad home page</text>
</svg>
