<?xml version="1.0" encoding="utf-8" ?>
<!DOCTYPE svg PUBLIC "-//W3C//DTD SVG 1.1//EN" "http://www.w3.org/Graphics/SVG/1.1/DTD/svg11.dtd">
<svg height="263" version="1.1" width="668" xmlns="http://www.w3.org/2000/svg">
<line fill="#000000" stroke="#000000" stroke-width="1" x1="89" x2="89" y1="63" y2="68"/>
<line fill="#000000" stroke="#000000" stroke-width="1" x1="89" x2="89" y1="73" y2="78"/>
<line fill="#000000" stroke="#000000" stroke-width="1" x1="89" x2="89" y1="83" y2="88"/>
<line fill="#000000" stroke="#000000" stroke-width="1" x1="89" x2="89" y1="93" y2="98"/>
<line fill="#000000" stroke="#000000" stroke-width="1" x1="89" x2="89" y1="103" y2="108"/>
<line fill="#000000" stroke="#000000" stroke-width="1" x1="89" x2="89" y1="113" y2="118"/>
<line fill="#000000" stroke="#000000" stroke-width="1" x1="89" x2="89" y1="123" y2="128"/>
<line fill="#000000" stroke="#000000" stroke-width="1" x1="89" x2="89" y1="133" y2="138"/>
<line fill="#000000" stroke="#000000" stroke-width="1" x1="89" x2="89" y1="143" y2="148"/>
<line fill="#000000" stroke="#000000" stroke-width="1" x1="89" x2="89" y1="153" y2="158"/>
<line fill="#000000" stroke="#000000" stroke-width="1" x1="89" x2="89" y1="163" y2="168"/>
<line fill="#000000" stroke="#000000" stroke-width="1" x1="89" x2="89" y1="173" y2="178"/>
<line fill="#000000" stroke="#000000" stroke-width="1" x1="89" x2="89" y1="183" y2="188"/>
<line fill="#000000" stroke="#000000" stroke-width="1" x1="89" x2="89" y1="193" y2="198"/>
<line fill="#000000" stroke="#000000" stroke-width="1" x1="89" x2="89" y1="203" y2="208"/>
<line fill="#000000" stroke="#000000" stroke-width="1" x1="89" x2="89" y1="213" y2="218"/>
<line fill="#000000" stroke="#000000" stroke-width="1" x1="89" x2="89" y1="223" y2="228"/>
<line fill="#000000" stroke="#000000" stroke-width="1" x1="89" x2="89" y1="233" y2="238"/>
<line fill="#000000" stroke="#000000" stroke-width="1" x1="89" x2="89" y1="243" y2="248"/>
<rect fill="#ffffff" height="185" stroke="#ffffff" stroke-width="1" width="20" x="79" y="63"/>
<rect fill="none" height="185" stroke="#000000" stroke-width="1" width="20" x="79" y="63"/>
<rect fill="#ffffff" height="50" stroke="#ffffff" stroke-width="1" width="150" x="14" y="14"/>
<rect fill="none" height="50" stroke="#000000" stroke-width="1" width="150" x="14" y="14"/>
<text font-family="Lucida Grande" font-size="13" x="74" y="28">
:TDF</text>
<line fill="#000000" stroke="#000000" stroke-width="1" x1="586" x2="586" y1="63" y2="68"/>
<line fill="#000000" stroke="#000000" stroke-width="1" x1="586" x2="586" y1="73" y2="78"/>
<line fill="#000000" stroke="#000000" stroke-width="1" x1="586" x2="586" y1="83" y2="88"/>
<line fill="#000000" stroke="#000000" stroke-width="1" x1="586" x2="586" y1="93" y2="98"/>
<line fill="#000000" stroke="#000000" stroke-width="1" x1="586" x2="586" y1="103" y2="108"/>
<line fill="#000000" stroke="#000000" stroke-width="1" x1="586" x2="586" y1="113" y2="118"/>
<line fill="#000000" stroke="#000000" stroke-width="1" x1="586" x2="586" y1="123" y2="128"/>
<line fill="#000000" stroke="#000000" stroke-width="1" x1="586" x2="586" y1="133" y2="138"/>
<line fill="#000000" stroke="#000000" stroke-width="1" x1="586" x2="586" y1="143" y2="148"/>
<line fill="#000000" stroke="#000000" stroke-width="1" x1="586" x2="586" y1="153" y2="158"/>
<line fill="#000000" stroke="#000000" stroke-width="1" x1="586" x2="586" y1="163" y2="168"/>
<line fill="#000000" stroke="#000000" stroke-width="1" x1="586" x2="586" y1="173" y2="178"/>
<line fill="#000000" stroke="#000000" stroke-width="1" x1="586" x2="586" y1="183" y2="188"/>
<line fill="#000000" stroke="#000000" stroke-width="1" x1="586" x2="586" y1="193" y2="198"/>
<line fill="#000000" stroke="#000000" stroke-width="1" x1="586" x2="586" y1="203" y2="208"/>
<line fill="#000000" stroke="#000000" stroke-width="1" x1="586" x2="586" y1="213" y2="218"/>
<line fill="#000000" stroke="#000000" stroke-width="1" x1="586" x2="586" y1="223" y2="228"/>
<line fill="#000000" stroke="#000000" stroke-width="1" x1="586" x2="586" y1="233" y2="238"/>
<line fill="#000000" stroke="#000000" stroke-width="1" x1="586" x2="586" y1="243" y2="248"/>
<rect fill="#ffffff" height="185" stroke="#ffffff" stroke-width="1" width="20" x="576" y="63"/>
<rect fill="none" height="185" stroke="#000000" stroke-width="1" width="20" x="576" y="63"/>
<rect fill="#ffffff" height="50" stroke="#ffffff" stroke-width="1" width="136" x="518" y="14"/>
<rect fill="none" height="50" stroke="#000000" stroke-width="1" width="136" x="518" y="14"/>
<text font-family="Lucida Grande" font-size="13" x="559" y="28">
:Sistema</text>
<polyline fill="none" points="99,121 576,121" stroke="#000000" stroke-width="1"/>
<line fill="#000000" stroke="#000000" stroke-width="1" x1="564" x2="576" y1="128" y2="121"/>
<line fill="#000000" stroke="#000000" stroke-width="1" x1="564" x2="576" y1="114" y2="121"/>
<text font-family="Lucida Grande" font-size="13" x="250" y="116">
1:Click link fornito nella mail</text>
<line fill="#000000" stroke="#000000" stroke-width="1" x1="576" x2="571" y1="185" y2="185"/>
<line fill="#000000" stroke="#000000" stroke-width="1" x1="566" x2="561" y1="185" y2="185"/>
<line fill="#000000" stroke="#000000" stroke-width="1" x1="556" x2="551" y1="185" y2="185"/>
<line fill="#000000" stroke="#000000" stroke-width="1" x1="546" x2="541" y1="185" y2="185"/>
<line fill="#000000" stroke="#000000" stroke-width="1" x1="536" x2="531" y1="185" y2="185"/>
<line fill="#000000" stroke="#000000" stroke-width="1" x1="526" x2="521" y1="185" y2="185"/>
<line fill="#000000" stroke="#000000" stroke-width="1" x1="516" x2="511" y1="185" y2="185"/>
<line fill="#000000" stroke="#000000" stroke-width="1" x1="506" x2="501" y1="185" y2="185"/>
<line fill="#000000" stroke="#000000" stroke-width="1" x1="496" x2="491" y1="185" y2="185"/>
<line fill="#000000" stroke="#000000" stroke-width="1" x1="486" x2="481" y1="185" y2="185"/>
<line fill="#000000" stroke="#000000" stroke-width="1" x1="476" x2="471" y1="185" y2="185"/>
<line fill="#000000" stroke="#000000" stroke-width="1" x1="466" x2="461" y1="185" y2="185"/>
<line fill="#000000" stroke="#000000" stroke-width="1" x1="456" x2="451" y1="185" y2="185"/>
<line fill="#000000" stroke="#000000" stroke-width="1" x1="446" x2="441" y1="185" y2="185"/>
<line fill="#000000" stroke="#000000" stroke-width="1" x1="436" x2="431" y1="185" y2="185"/>
<line fill="#000000" stroke="#000000" stroke-width="1" x1="426" x2="421" y1="185" y2="185"/>
<line fill="#000000" stroke="#000000" stroke-width="1" x1="416" x2="411" y1="185" y2="185"/>
<line fill="#000000" stroke="#000000" stroke-width="1" x1="406" x2="401" y1="185" y2="185"/>
<line fill="#000000" stroke="#000000" stroke-width="1" x1="396" x2="391" y1="185" y2="185"/>
<line fill="#000000" stroke="#000000" stroke-width="1" x1="386" x2="381" y1="185" y2="185"/>
<line fill="#000000" stroke="#000000" stroke-width="1" x1="376" x2="371" y1="185" y2="185"/>
<line fill="#000000" stroke="#000000" stroke-width="1" x1="366" x2="361" y1="185" y2="185"/>
<line fill="#000000" stroke="#000000" stroke-width="1" x1="356" x2="351" y1="185" y2="185"/>
<line fill="#000000" stroke="#000000" stroke-width="1" x1="346" x2="341" y1="185" y2="185"/>
<line fill="#000000" stroke="#000000" stroke-width="1" x1="336" x2="331" y1="185" y2="185"/>
<line fill="#000000" stroke="#000000" stroke-width="1" x1="326" x2="321" y1="185" y2="185"/>
<line fill="#000000" stroke="#000000" stroke-width="1" x1="316" x2="311" y1="185" y2="185"/>
<line fill="#000000" stroke="#000000" stroke-width="1" x1="306" x2="301" y1="185" y2="185"/>
<line fill="#000000" stroke="#000000" stroke-width="1" x1="296" x2="291" y1="185" y2="185"/>
<line fill="#000000" stroke="#000000" stroke-width="1" x1="286" x2="281" y1="185" y2="185"/>
<line fill="#000000" stroke="#000000" stroke-width="1" x1="276" x2="271" y1="185" y2="185"/>
<line fill="#000000" stroke="#000000" stroke-width="1" x1="266" x2="261" y1="185" y2="185"/>
<line fill="#000000" stroke="#000000" stroke-width="1" x1="256" x2="251" y1="185" y2="185"/>
<line fill="#000000" stroke="#000000" stroke-width="1" x1="246" x2="241" y1="185" y2="185"/>
<line fill="#000000" stroke="#000000" stroke-width="1" x1="236" x2="231" y1="185" y2="185"/>
<line fill="#000000" stroke="#000000" stroke-width="1" x1="226" x2="221" y1="185" y2="185"/>
<line fill="#000000" stroke="#000000" stroke-width="1" x1="216" x2="211" y1="185" y2="185"/>
<line fill="#000000" stroke="#000000" stroke-width="1" x1="206" x2="201" y1="185" y2="185"/>
<line fill="#000000" stroke="#000000" stroke-width="1" x1="196" x2="191" y1="185" y2="185"/>
<line fill="#000000" stroke="#000000" stroke-width="1" x1="186" x2="181" y1="185" y2="185"/>
<line fill="#000000" stroke="#000000" stroke-width="1" x1="176" x2="171" y1="185" y2="185"/>
<line fill="#000000" stroke="#000000" stroke-width="1" x1="166" x2="161" y1="185" y2="185"/>
<line fill="#000000" stroke="#000000" stroke-width="1" x1="156" x2="151" y1="185" y2="185"/>
<line fill="#000000" stroke="#000000" stroke-width="1" x1="146" x2="141" y1="185" y2="185"/>
<line fill="#000000" stroke="#000000" stroke-width="1" x1="136" x2="131" y1="185" y2="185"/>
<line fill="#000000" stroke="#000000" stroke-width="1" x1="126" x2="121" y1="185" y2="185"/>
<line fill="#000000" stroke="#000000" stroke-width="1" x1="116" x2="111" y1="185" y2="185"/>
<line fill="#000000" stroke="#000000" stroke-width="1" x1="106" x2="101" y1="185" y2="185"/>
<line fill="#000000" stroke="#000000" stroke-width="1" x1="111" x2="99" y1="178" y2="185"/>
<line fill="#000000" stroke="#000000" stroke-width="1" x1="111" x2="99" y1="192" y2="185"/>
<text font-family="Lucida Grande" font-size="13" x="152" y="180">
2:Reindirizzamento a pagina contenete dettagli pacchetto</text>
</svg>
